M48
METRIC,LZ
VER,1
FMAT,2
T01C0.25F042B423S6H2000
DETECT,ON
ATC,ON
%
T01
X005301Y021699
X0043Y0216
X003299Y0297
X004399Y0254
X005499Y027699
Y0797
X004699Y085001
X005499Y141
X004699Y146401
X008301Y084099
X003099Y142499
X001999Y087201
X005499Y0859
X001699Y029101
X007701Y029401
X008301Y025799
X001001Y021001
X008999
Y032901
X0092Y088199
X0011Y0811
X000899Y032901
X008301Y087099
X0084Y148801
M30
