G04 CAM350 V9.5.1 (Build 211) Date:  Wed Jul 14 18:57:04 2021 *
G04 Database: C:\Users\Administrator\Desktop\220465AS2.cam *
G04 Layer 5: GBL *
%FSLAX25Y25*%
%MOIN*%
%SFA1.000B1.000*%

%MIA0B0*%
%IPPOS*%
%ADD10C,0.01000*%
%ADD11C,0.02400*%
%LNGBL*%
%LPD*%
G36*
X1020Y80160D02*
G01Y132438D01*
X1050Y132590*
X1138Y132720*
X1266Y132808*
X1420Y132838*
X12772*
X13026Y132868*
X13244Y132952*
X13446Y133090*
X13566Y133210*
X13672Y133356*
X13770Y133574*
X13816Y133864*
Y314936*
X13784Y315192*
X13702Y315410*
X13562Y315612*
X13442Y315732*
X13302Y315836*
X13084Y315934*
X12790Y315980*
X1420*
X1266Y316012*
X1138Y316098*
X1050Y316228*
X1020Y316380*
Y348974*
X1050Y349126*
X1138Y349256*
X1266Y349344*
X1420Y349374*
X12772*
X13026Y349404*
X13244Y349488*
X13446Y349626*
X13566Y349746*
X13670Y349888*
X13768Y350106*
X13816Y350400*
X13820Y543322*
X13810Y555094*
X13770Y555380*
X13684Y555594*
X13534Y555796*
X13440Y555892*
X13250Y556024*
X13032Y556108*
X12786Y556138*
X1420*
X1266Y556168*
X1136Y556256*
X1050Y556384*
X1020Y556538*
Y589132*
X1050Y589284*
X1136Y589414*
X1266Y589500*
X1420Y589532*
X37950*
X38102Y589500*
X38232Y589414*
X38320Y589284*
X38350Y589132*
Y556538*
X38320Y556384*
X38232Y556256*
X38102Y556168*
X37950Y556138*
X26598*
X26344Y556106*
X26124Y556024*
X25924Y555886*
X25792Y555760*
X25662Y555570*
X25578Y555352*
X25550Y555108*
X25554Y350418*
X25586Y350162*
X25668Y349944*
X25808Y349742*
X25928Y349622*
X26068Y349518*
X26288Y349420*
X26580Y349374*
X37950*
X38104Y349344*
X38232Y349256*
X38320Y349126*
X38350Y348974*
Y316380*
X38320Y316228*
X38232Y316098*
X38104Y316012*
X37950Y315980*
X26600*
X26344Y315950*
X26126Y315866*
X25924Y315728*
X25804Y315608*
X25700Y315466*
X25602Y315248*
X25554Y314954*
Y133882*
X25586Y133626*
X25668Y133408*
X25808Y133208*
X25928Y133088*
X26068Y132984*
X26288Y132886*
X26580Y132838*
X37950*
X38104Y132808*
X38232Y132722*
X38320Y132592*
X38350Y132438*
Y80160*
X38320Y80008*
X38232Y79878*
X38104Y79790*
X37950Y79760*
X26600*
X26344Y79730*
X26126Y79646*
X25924Y79508*
X25804Y79388*
X25700Y79246*
X25602Y79028*
X25554Y78734*
Y-57640*
X25524Y-57794*
X25438Y-57922*
X25308Y-58010*
X25154Y-58040*
X14216*
X14062Y-58010*
X13932Y-57922*
X13846Y-57794*
X13816Y-57640*
Y78716*
X13784Y78972*
X13702Y79190*
X13562Y79392*
X13442Y79512*
X13300Y79616*
X13082Y79714*
X12790Y79760*
X1420*
X1266Y79790*
X1138Y79878*
X1050Y80008*
X1020Y80160*
G37*
%LPC*%
G36*
X16286Y576378D02*
G01X16320Y576764D01*
X16420Y577138*
X16582Y577488*
X16804Y577804*
X17078Y578078*
X17394Y578300*
X17746Y578462*
X18118Y578564*
X18434Y578590*
X18568Y578626*
X18682Y578706*
X26864Y586888*
X27110Y587090*
X27372Y587230*
X27656Y587316*
X27972Y587348*
X31300*
X31452Y587378*
X31582Y587464*
X31644Y587526*
X31962Y587748*
X32312Y587912*
X32686Y588012*
X33070Y588046*
X33456Y588012*
X33830Y587912*
X34180Y587748*
X34496Y587526*
X34770Y587254*
X34992Y586936*
X35156Y586586*
X35256Y586212*
X35290Y585828*
X35256Y585442*
X35156Y585068*
X34992Y584718*
X34770Y584402*
X34496Y584128*
X34180Y583906*
X33830Y583742*
X33456Y583642*
X33070Y583608*
X32686Y583642*
X32312Y583742*
X31962Y583906*
X31644Y584128*
X31582Y584190*
X31452Y584276*
X31300Y584308*
X28748*
X28594Y584276*
X28466Y584190*
X20936Y576662*
X20850Y576532*
X20820Y576378*
X20850Y576226*
X20936Y576096*
X22716Y574316*
X22916Y574072*
X23056Y573808*
X23144Y573524*
X23174Y573208*
Y556890*
X23204Y556736*
X23292Y556606*
X23354Y556544*
X23576Y556228*
X23738Y555876*
X23838Y555504*
X23872Y555118*
X23838Y554732*
X23738Y554360*
X23576Y554008*
X23354Y553692*
X23080Y553418*
X22764Y553196*
X22412Y553034*
X22040Y552934*
X21654Y552900*
X21268Y552934*
X20896Y553034*
X20544Y553196*
X20228Y553418*
X19954Y553692*
X19732Y554008*
X19570Y554360*
X19470Y554732*
X19436Y555118*
X19470Y555504*
X19570Y555876*
X19732Y556228*
X19954Y556544*
X20016Y556606*
X20104Y556736*
X20134Y556890*
Y572432*
X20104Y572586*
X20016Y572716*
X18682Y574050*
X18568Y574130*
X18434Y574166*
X18118Y574194*
X17746Y574294*
X17394Y574458*
X17078Y574678*
X16804Y574952*
X16582Y575270*
X16420Y575620*
X16320Y575994*
X16286Y576378*
G37*
G36*
Y334646D02*
G01X16320Y335032D01*
X16420Y335404*
X16582Y335756*
X16804Y336072*
X17078Y336346*
X17394Y336568*
X17746Y336730*
X18118Y336830*
X18504Y336864*
X18890Y336830*
X19262Y336730*
X19614Y336568*
X19930Y336346*
X19992Y336282*
X20122Y336196*
X20276Y336166*
X23614*
X23768Y336196*
X23896Y336282*
X30350Y342736*
X30428Y342848*
X30464Y342984*
X30492Y343298*
X30592Y343672*
X30756Y344022*
X30978Y344340*
X31252Y344614*
X31568Y344834*
X31918Y344998*
X32292Y345098*
X32678Y345132*
X33062Y345098*
X33436Y344998*
X33786Y344834*
X34104Y344614*
X34376Y344340*
X34598Y344022*
X34762Y343672*
X34862Y343298*
X34896Y342914*
X34862Y342528*
X34762Y342154*
X34598Y341804*
X34376Y341488*
X34104Y341214*
X33786Y340992*
X33436Y340828*
X33062Y340728*
X32746Y340702*
X32612Y340666*
X32498Y340586*
X25498Y333584*
X25252Y333384*
X24990Y333244*
X24706Y333156*
X24390Y333126*
X20424*
X20270Y333096*
X20142Y333008*
X20054Y332878*
X20024Y332726*
Y317726*
X20054Y317572*
X20142Y317442*
X21476Y316108*
X21590Y316028*
X21724Y315992*
X22040Y315964*
X22412Y315864*
X22764Y315702*
X23080Y315480*
X23354Y315206*
X23576Y314890*
X23738Y314538*
X23838Y314166*
X23872Y313780*
X23838Y313394*
X23738Y313022*
X23576Y312670*
X23354Y312354*
X23080Y312080*
X22764Y311858*
X22412Y311696*
X22040Y311596*
X21654Y311562*
X21268Y311596*
X20896Y311696*
X20544Y311858*
X20228Y312080*
X19954Y312354*
X19732Y312670*
X19570Y313022*
X19470Y313394*
X19442Y313710*
X19406Y313844*
X19326Y313958*
X17444Y315842*
X17242Y316086*
X17102Y316350*
X17016Y316634*
X16984Y316950*
Y332874*
X16954Y333028*
X16866Y333158*
X16804Y333220*
X16582Y333536*
X16420Y333888*
X16320Y334260*
X16286Y334646*
G37*
G36*
X10774Y116928D02*
G01X10808Y117314D01*
X10908Y117688*
X11070Y118038*
X11292Y118356*
X11566Y118628*
X11882Y118850*
X12234Y119014*
X12606Y119114*
X12992Y119148*
X13378Y119114*
X13750Y119014*
X14102Y118850*
X14418Y118628*
X14692Y118356*
X14914Y118038*
X15076Y117688*
X15176Y117314*
X15204Y116998*
X15240Y116864*
X15320Y116750*
X18384Y113686*
X18586Y113442*
X18726Y113178*
X18812Y112894*
X18844Y112578*
Y110060*
X18872Y109910*
X18956Y109782*
X19084Y109694*
X19234Y109660*
X19384Y109686*
X19516Y109768*
X19606Y109892*
X19732Y110164*
X19954Y110482*
X20228Y110754*
X20544Y110976*
X20896Y111140*
X21268Y111240*
X21654Y111274*
X22040Y111240*
X22412Y111140*
X22764Y110976*
X23080Y110754*
X23354Y110482*
X23576Y110164*
X23738Y109814*
X23838Y109440*
X23866Y109124*
X23902Y108990*
X23982Y108876*
X25470Y107388*
X25672Y107142*
X25812Y106880*
X25898Y106596*
X25930Y106280*
Y88996*
X25898Y88680*
X25812Y88396*
X25672Y88132*
X25470Y87888*
X23194Y85612*
X23114Y85498*
X23078Y85364*
X23050Y85048*
X22950Y84674*
X22788Y84324*
X22566Y84006*
X22292Y83734*
X21976Y83512*
X21624Y83348*
X21252Y83248*
X20866Y83214*
X20480Y83248*
X20108Y83348*
X19756Y83512*
X19440Y83734*
X19166Y84006*
X18944Y84324*
X18782Y84674*
X18682Y85048*
X18648Y85432*
X18682Y85818*
X18782Y86192*
X18944Y86542*
X19166Y86860*
X19440Y87132*
X19756Y87354*
X20108Y87518*
X20480Y87618*
X20796Y87646*
X20930Y87682*
X21044Y87762*
X22772Y89488*
X22858Y89618*
X22890Y89772*
Y105504*
X22858Y105658*
X22772Y105788*
X21832Y106726*
X21718Y106806*
X21584Y106842*
X21268Y106870*
X20896Y106970*
X20544Y107134*
X20228Y107356*
X19954Y107628*
X19732Y107946*
X19606Y108218*
X19516Y108342*
X19384Y108424*
X19234Y108450*
X19084Y108416*
X18956Y108328*
X18872Y108200*
X18844Y108050*
Y101772*
X18874Y101618*
X18960Y101488*
X19022Y101426*
X19244Y101110*
X19408Y100758*
X19508Y100386*
X19542Y100000*
X19508Y99614*
X19408Y99242*
X19244Y98890*
X19022Y98574*
X18748Y98300*
X18432Y98078*
X18082Y97916*
X17708Y97816*
X17322Y97782*
X16938Y97816*
X16564Y97916*
X16214Y98078*
X15896Y98300*
X15624Y98574*
X15402Y98890*
X15238Y99242*
X15138Y99614*
X15104Y100000*
X15138Y100386*
X15238Y100758*
X15402Y101110*
X15624Y101426*
X15686Y101488*
X15772Y101618*
X15804Y101772*
Y111802*
X15772Y111956*
X15686Y112086*
X13170Y114600*
X13056Y114680*
X12922Y114716*
X12606Y114744*
X12234Y114844*
X11882Y115008*
X11566Y115230*
X11292Y115502*
X11070Y115820*
X10908Y116170*
X10808Y116544*
X10774Y116928*
G37*
%LPD*%
G54D11*
X20866Y85433D03*
X16929Y85039D03*
X12992Y116929D03*
X17323Y100000D03*
X21654Y109055D03*
Y313780D03*
X18504Y334646D03*
X21654Y555118D03*
X18504Y576378D03*
X32677Y331102D03*
X12204Y561024D03*
X7874Y343307D03*
X21654Y338189D03*
X6693Y114567D03*
X30315Y115748D03*
X32677Y101575D03*
X3937Y82677D03*
X35433D03*
Y129528D03*
X36221Y347244D03*
X4331Y319291D03*
X3543Y129528D03*
X32677Y342914D03*
X33071Y585827D03*
G54D10*
X18504Y576378D02*
G01X27953Y585827D01*
X33071*
X32677Y342914D02*
G01X24409Y334646D01*
X18504*
X21654Y555118D02*
G01Y573228D01*
X18504Y576378*
X12992Y116929D02*
G01X17323Y112598D01*
Y100000*
X20866Y85433D02*
G01X24409Y88976D01*
Y106299*
X21654Y109055*
Y313780D02*
G01X18504Y316930D01*
Y334646*
M02*
