G04 CAM350 V9.5.1 (Build 211) Date:  Wed Jul 14 18:57:04 2021 *
G04 Database: C:\Users\Administrator\Desktop\220465AS2.cam *
G04 Layer 4: GTL *
%FSLAX25Y25*%
%MOIN*%
%SFA1.000B1.000*%

%MIA0B0*%
%IPPOS*%
%ADD10C,0.01000*%
%ADD11C,0.02400*%
%ADD13R,0.01180X0.15750*%
%ADD14R,0.03940X0.07870*%
%ADD15R,0.03150X0.01970*%
%LNGTL*%
%LPD*%
G36*
X14882Y94979D02*
G01X10945D01*
Y95963*
X14882*
Y94979*
G37*
G36*
Y98919D02*
G01X10945D01*
Y99903*
X14882*
Y98919*
G37*
G36*
Y102854D02*
G01X10945D01*
Y103838*
X14882*
Y102854*
G37*
G36*
X27953Y110729D02*
G01X24016D01*
Y111713*
X27953*
Y110729*
G37*
G36*
X19942Y111691D02*
G01Y115628D01*
X20926*
Y111691*
X19942*
G37*
G36*
X14882Y96948D02*
G01X10945D01*
Y97933*
X14882*
Y96948*
G37*
G36*
Y104823D02*
G01X10945D01*
Y105808*
X14882*
Y104823*
G37*
G36*
Y100883D02*
G01X10945D01*
Y101868*
X14882*
Y100883*
G37*
G36*
X21954Y111570D02*
G01Y116490D01*
X21984Y116642*
X22072Y116772*
X22166Y116866*
X22296Y116954*
X22498Y116984*
X22650Y116954*
X22780Y116866*
X22866Y116736*
X22898Y116584*
Y114893*
Y114892*
X22899*
X23052Y114844*
X23176Y114740*
X23248Y114594*
X23256Y114432*
X23198Y114282*
X23098Y114122*
X23024Y113908*
X22996Y113658*
Y112826*
X22970Y112686*
X22898Y112562*
Y111526*
X22870Y111380*
X22790Y111254*
X22672Y111166*
X22528Y111126*
X22380Y111144*
X22238Y111186*
X22090Y111270*
X21990Y111404*
X21954Y111570*
G37*
G36*
X23534Y116584D02*
G01X23564Y116736D01*
X23650Y116866*
X23780Y116954*
X23934Y116984*
X24784*
X25100Y117014*
X25384Y117102*
X25646Y117242*
X25892Y117442*
X27240Y118790*
X27484Y119102*
X27572Y119184*
X27680Y119238*
X27800Y119256*
X28128*
X28376Y119284*
X28592Y119358*
X28784Y119480*
X28946Y119642*
X29066Y119834*
X29142Y120050*
X29152Y120140*
X29196Y120282*
X29288Y120398*
X29418Y120472*
X29564Y120494*
X29710Y120462*
X29832Y120378*
X31432Y118778*
X31520Y118648*
X31550Y118494*
Y113140*
X31520Y112988*
X31432Y112858*
X31304Y112772*
X31150Y112740*
X29372*
X29220Y112772*
X29090Y112858*
X29004Y112988*
X28972Y113140*
Y113658*
X28944Y113908*
X28870Y114122*
X28748Y114316*
X28588Y114476*
X28394Y114598*
X28180Y114672*
X27930Y114700*
X24314*
X24160Y114732*
X24030Y114818*
X23944Y114948*
X23914Y115100*
Y115606*
X23886Y115854*
X23810Y116070*
X23688Y116262*
X23564Y116430*
X23534Y116584*
G37*
G36*
X1020Y80160D02*
G01Y91144D01*
X1050Y91298*
X1138Y91428*
X1266Y91514*
X1420Y91544*
X1574Y91514*
X1702Y91428*
X12688Y80444*
X12774Y80314*
X12804Y80160*
X12774Y80008*
X12688Y79878*
X12558Y79790*
X12404Y79760*
X1420*
X1266Y79790*
X1138Y79878*
X1050Y80008*
X1020Y80160*
G37*
G36*
X15306Y85040D02*
G01X15336Y85194D01*
X15422Y85322*
X18622Y88522*
X18752Y88610*
X18906Y88640*
X20850*
X21166Y88672*
X21450Y88758*
X21714Y88898*
X21958Y89100*
X23460Y90602*
X23662Y90846*
X23802Y91110*
X23888Y91394*
X23920Y91710*
Y93558*
X23950Y93712*
X24038Y93842*
X24166Y93928*
X24320Y93958*
X25904*
X26004Y93950*
X26568*
X26722Y93920*
X26852Y93834*
X28284Y92400*
X28370Y92272*
X28402Y92118*
Y90166*
X28370Y90014*
X28284Y89884*
X23752Y85350*
X23626Y85266*
X23480Y85234*
X23332Y85258*
X23202Y85334*
X23110Y85454*
X23070Y85598*
X23050Y85818*
X22950Y86192*
X22788Y86542*
X22566Y86860*
X22292Y87132*
X21976Y87354*
X21624Y87518*
X21252Y87618*
X20866Y87652*
X20480Y87618*
X20108Y87518*
X19756Y87354*
X19440Y87132*
X19166Y86860*
X18944Y86542*
X18782Y86192*
X18682Y85818*
X18648Y85432*
X18682Y85048*
X18782Y84674*
X18944Y84324*
X19076Y84136*
X19130Y84026*
X19150Y83906*
Y-21136*
X19118Y-21288*
X19032Y-21418*
X18902Y-21504*
X18750Y-21536*
X18650*
X18496Y-21504*
X18368Y-21418*
X18280Y-21288*
X18250Y-21136*
Y81280*
X18218Y81596*
X18132Y81880*
X17992Y82144*
X17790Y82388*
X15422Y84758*
X15336Y84886*
X15306Y85040*
G37*
G36*
X24160Y133276D02*
G01Y310028D01*
X24190Y310180*
X24276Y310310*
X24872Y310908*
X25002Y310994*
X25154Y311024*
X25308Y310994*
X25438Y310908*
X25524Y310778*
X25554Y310624*
Y133882*
X25586Y133626*
X25668Y133408*
X25808Y133208*
X25928Y133088*
X26068Y132984*
X26288Y132886*
X26580Y132838*
X37950*
X38104Y132808*
X38232Y132722*
X38320Y132592*
X38350Y132438*
Y124606*
X38320Y124452*
X38232Y124322*
X38104Y124236*
X37950Y124206*
X37796Y124236*
X37668Y124322*
X30618Y131370*
X30374Y131572*
X30110Y131712*
X29826Y131798*
X29510Y131830*
X25606*
X25452Y131860*
X25322Y131948*
X24278Y132992*
X24190Y133122*
X24160Y133276*
G37*
G36*
X1020Y125006D02*
G01Y132438D01*
X1050Y132590*
X1138Y132720*
X1266Y132808*
X1420Y132838*
X12772*
X13026Y132868*
X13244Y132952*
X13446Y133090*
X13566Y133210*
X13672Y133356*
X13770Y133574*
X13816Y133864*
Y314936*
X13784Y315192*
X13702Y315410*
X13562Y315612*
X13442Y315732*
X13302Y315836*
X13244Y315862*
X13106Y315968*
X12962Y315956*
X12770Y315980*
X1420*
X1266Y316012*
X1138Y316098*
X1050Y316228*
X1020Y316380*
Y327924*
X1058Y328094*
X1166Y328232*
X1322Y328312*
X1498Y328316*
X1658Y328244*
X1772Y328112*
X1888Y327896*
X2090Y327652*
X12692Y317050*
X12936Y316848*
X13202Y316706*
X13316Y316612*
X13446Y316624*
X13800Y316590*
X14810*
X14964Y316560*
X15092Y316472*
X15180Y316344*
X15210Y316190*
Y133666*
X15180Y133512*
X15092Y133382*
X13658Y131948*
X13528Y131860*
X13374Y131830*
X9470*
X9156Y131800*
X8870Y131712*
X8608Y131572*
X8362Y131372*
X1702Y124722*
X1572Y124636*
X1420Y124606*
X1266Y124636*
X1138Y124722*
X1050Y124852*
X1020Y125006*
G37*
G36*
Y556538D02*
G01Y589132D01*
X1050Y589284*
X1136Y589414*
X1266Y589500*
X1420Y589532*
X37950*
X38102Y589500*
X38232Y589414*
X38320Y589284*
X38350Y589132*
Y556538*
X38320Y556384*
X38232Y556256*
X38102Y556168*
X37950Y556138*
X26586*
X26430Y556164*
X26296Y556250*
X26206Y556380*
X26174Y556534*
X26202Y556690*
X26290Y556820*
X27830Y558362*
X28032Y558606*
X28172Y558870*
X28258Y559154*
X28290Y559470*
Y564142*
X28324Y564302*
X28418Y564436*
X28592Y564532*
X28784Y564652*
X28946Y564814*
X29066Y565006*
X29142Y565222*
X29170Y565470*
Y566410*
X29142Y566658*
X29094Y566794*
X29072Y566926*
X29094Y567058*
X29142Y567192*
X29170Y567440*
Y568380*
X29142Y568628*
X29094Y568762*
X29072Y568894*
X29094Y569026*
X29142Y569160*
X29170Y569410*
Y570348*
X29142Y570598*
X29096Y570730*
X29072Y570862*
X29096Y570994*
X29142Y571126*
X29170Y571374*
Y572314*
X29142Y572562*
X29094Y572698*
X29072Y572830*
X29094Y572962*
X29142Y573096*
X29170Y573344*
Y574284*
X29142Y574532*
X29094Y574668*
X29072Y574800*
X29094Y574932*
X29142Y575068*
X29166Y575289*
Y575290*
X29165*
X28420Y575294*
X28128Y575326*
X24236*
X23894Y575290*
X23197*
X23196*
Y575289*
X23220Y575068*
X23268Y574932*
X23290Y574800*
X23268Y574668*
X23220Y574532*
X23192Y574284*
Y573344*
X23220Y573096*
X23268Y572962*
X23290Y572830*
X23268Y572698*
X23220Y572562*
X23192Y572314*
Y571374*
X23220Y571126*
X23266Y570994*
X23290Y570862*
X23266Y570730*
X23220Y570598*
X23192Y570348*
Y569410*
X23220Y569160*
X23268Y569026*
X23290Y568894*
X23254Y568726*
X23170Y568586*
X23036Y568492*
X22876Y568458*
X22128*
X21880Y568430*
X21746Y568382*
X21614Y568360*
X21482Y568382*
X21348Y568430*
X21098Y568458*
X20580*
X20426Y568488*
X20296Y568574*
X20210Y568704*
X20180Y568858*
Y574792*
X20198Y574912*
X20252Y575020*
X20426Y575270*
X20588Y575620*
X20688Y575994*
X20722Y576378*
X20688Y576764*
X20588Y577138*
X20426Y577488*
X20292Y577678*
X20238Y577786*
X20220Y577906*
Y580740*
X20250Y580894*
X20338Y581024*
X20466Y581110*
X20620Y581140*
X21100*
X21350Y581168*
X21482Y581216*
X21614Y581238*
X21746Y581216*
X21880Y581168*
X22101Y581144*
X22102*
Y581145*
Y581828*
X22144Y582186*
Y584832*
X22188Y585236*
X22144Y585640*
Y586072*
X22102Y586430*
Y587113*
Y587114*
X22101*
X21880Y587090*
X21746Y587044*
X21614Y587020*
X21482Y587044*
X21350Y587090*
X21100Y587118*
X20162*
X19912Y587090*
X19778Y587042*
X19646Y587020*
X19514Y587042*
X19378Y587090*
X19130Y587118*
X18190*
X17942Y587090*
X17808Y587044*
X17676Y587020*
X17544Y587044*
X17412Y587090*
X17191Y587114*
X17190*
Y587113*
Y586430*
X17148Y586072*
Y582184*
X17180Y581876*
Y578346*
X17150Y578192*
X17062Y578062*
X16782Y577782*
X16652Y577694*
X16498Y577664*
X16346Y577694*
X16216Y577782*
X16130Y577912*
X16098Y578064*
Y578220*
X16070Y578468*
X16024Y578604*
X16002Y578736*
X16024Y578868*
X16070Y579002*
X16098Y579250*
Y580190*
X16070Y580438*
X16024Y580574*
X16002Y580706*
X16036Y580872*
X16100Y580988*
X16198Y581078*
Y582893*
Y582894*
X16197*
X15960*
X15850Y582910*
X15748Y582956*
X15520Y583100*
X15306Y583174*
X15056Y583202*
X11166*
X10818Y583164*
X10125*
X10124*
Y583163*
X10150Y582942*
X10196Y582808*
X10220Y582676*
X10196Y582544*
X10150Y582408*
X10122Y582160*
Y581220*
X10150Y580972*
X10196Y580838*
X10220Y580706*
X10196Y580574*
X10150Y580438*
X10122Y580190*
Y579676*
X10092Y579524*
X10004Y579394*
X9874Y579308*
X9722Y579276*
X9016*
X8850Y579312*
X8714Y579414*
X8632Y579562*
X8618Y579730*
X8676Y579890*
X8790Y580070*
X8866Y580286*
X8894Y580534*
Y580753*
Y580754*
X8893*
X7337*
X7336*
Y580753*
Y579964*
X7306Y579810*
X7220Y579682*
X7090Y579594*
X6936Y579564*
X5662*
X5508Y579594*
X5378Y579682*
X5292Y579810*
X5262Y579964*
Y580753*
Y580754*
X5261*
X3705*
X3704*
Y580753*
Y580534*
X3732Y580286*
X3808Y580070*
X3928Y579878*
X3996Y579810*
X4082Y579682*
X4112Y579528*
X4082Y579376*
X3996Y579246*
X3928Y579178*
X3808Y578986*
X3732Y578770*
X3704Y578522*
Y576598*
X3732Y576348*
X3808Y576134*
X3928Y575940*
X4090Y575780*
X4282Y575658*
X4498Y575584*
X4746Y575556*
X7852*
X8100Y575584*
X8316Y575658*
X8508Y575780*
X8670Y575940*
X8738Y576050*
X8826Y576150*
X8944Y576214*
X9076Y576236*
X9722*
X9874Y576206*
X10004Y576120*
X10092Y575990*
X10122Y575836*
Y575316*
X10150Y575066*
X10196Y574932*
X10220Y574800*
X10196Y574668*
X10150Y574534*
X10122Y574284*
Y573346*
X10150Y573096*
X10196Y572962*
X10220Y572830*
X10196Y572698*
X10150Y572564*
X10122Y572314*
Y571376*
X10150Y571126*
X10196Y570994*
X10218Y570862*
X10196Y570730*
X10150Y570598*
X10122Y570350*
Y569410*
X10150Y569162*
X10196Y569028*
X10220Y568896*
X10196Y568764*
X10150Y568628*
X10122Y568380*
Y567440*
X10150Y567192*
X10196Y567058*
X10220Y566926*
X10196Y566794*
X10150Y566658*
X10122Y566410*
Y565470*
X10150Y565222*
X10224Y565006*
X10346Y564814*
X10508Y564652*
X10700Y564532*
X10916Y564456*
X11164Y564428*
X14780*
X14934Y564398*
X15064Y564310*
X15150Y564182*
X15180Y564028*
Y563524*
X15208Y563274*
X15284Y563060*
X15406Y562866*
X15566Y562706*
X15760Y562584*
X15974Y562508*
X16224Y562480*
X17162*
X17412Y562508*
X17544Y562556*
X17676Y562578*
X17808Y562556*
X17940Y562508*
X18190Y562480*
X19128*
X19378Y562508*
X19512Y562556*
X19644Y562578*
X19776Y562556*
X19912Y562508*
X20046Y562430*
X20138Y562308*
X20180Y562160*
X20162Y562008*
X20085Y561874*
X19966Y561776*
X19500Y561642*
X19236Y561502*
X18992Y561300*
X15670Y557978*
X15468Y557734*
X15328Y557470*
X15242Y557186*
X15210Y556870*
Y350596*
X15180Y350442*
X15092Y350312*
X14398Y349616*
X14266Y349530*
X14110Y349500*
X13956Y349532*
X13826Y349622*
X13742Y349754*
X13714Y349910*
X13768Y350106*
X13816Y350400*
X13820Y543322*
X13810Y555094*
X13770Y555380*
X13684Y555594*
X13534Y555796*
X13440Y555892*
X13250Y556024*
X13032Y556108*
X12786Y556138*
X1420*
X1266Y556168*
X1136Y556256*
X1050Y556384*
X1020Y556538*
G37*
%LPC*%
G36*
X7336Y582239D02*
G01Y582238D01*
X7337*
X8893*
X8894*
Y582239*
Y582458*
X8866Y582708*
X8790Y582922*
X8670Y583116*
X8508Y583276*
X8316Y583398*
X8100Y583472*
X7852Y583500*
X7337*
X7336*
Y583499*
Y582239*
G37*
G36*
X10124Y584156D02*
G01X10125D01*
X11875*
X11876*
Y584157*
Y585171*
Y585172*
X11875*
X11164*
X10916Y585144*
X10700Y585070*
X10508Y584948*
X10346Y584786*
X10224Y584594*
X10150Y584378*
X10124Y584157*
Y584156*
G37*
G36*
X14344Y584157D02*
G01Y584156D01*
X14345*
X14379*
X14380*
Y584157*
Y584964*
X14412Y585116*
X14447Y585171*
X14446Y585172*
X14345*
X14344*
Y585171*
Y584157*
G37*
G36*
X15115Y585364D02*
G01X16197D01*
X16198*
Y585365*
Y587113*
Y587114*
X16197*
X15974Y587090*
X15760Y587014*
X15566Y586894*
X15406Y586732*
X15284Y586540*
X15208Y586324*
X15180Y586076*
Y585572*
X15150Y585420*
X15115Y585365*
Y585364*
G37*
G36*
X23094Y581078D02*
G01X23192Y580988D01*
X23268Y580838*
X23290Y580706*
X23268Y580574*
X23220Y580440*
X23192Y580190*
Y579252*
X23220Y579002*
X23266Y578870*
X23290Y578738*
X23266Y578606*
X23220Y578474*
X23196Y578253*
Y578252*
X23197*
X23878*
X24236Y578210*
X28124*
X28484Y578252*
X29165*
X29166*
Y578253*
X29142Y578474*
X29096Y578606*
X29072Y578738*
X29096Y578870*
X29142Y579002*
X29170Y579252*
Y579806*
X29200Y579958*
X29286Y580088*
X29416Y580176*
X29570Y580206*
X30274*
X30406Y580184*
X30522Y580118*
X30612Y580018*
X30700Y579878*
X30768Y579810*
X30854Y579682*
X30884Y579528*
X30854Y579376*
X30768Y579246*
X30700Y579178*
X30580Y578986*
X30504Y578770*
X30476Y578522*
Y578303*
Y578302*
X30477*
X32033*
X32034*
Y578303*
Y579092*
X32064Y579246*
X32150Y579376*
X32280Y579462*
X32434Y579492*
X33708*
X33862Y579462*
X33990Y579376*
X34078Y579246*
X34108Y579092*
Y578303*
Y578302*
X34109*
X35665*
X35666*
Y578303*
Y578522*
X35638Y578770*
X35562Y578986*
X35440Y579178*
X35374Y579246*
X35288Y579376*
X35256Y579528*
X35288Y579682*
X35374Y579810*
X35440Y579878*
X35562Y580070*
X35638Y580286*
X35666Y580534*
Y582458*
X35638Y582708*
X35562Y582922*
X35440Y583116*
X35280Y583276*
X35086Y583398*
X34858Y583478*
X34718Y583562*
X34624Y583694*
X34590Y583854*
Y584056*
X34622Y584210*
X34708Y584338*
X34770Y584402*
X34992Y584718*
X35156Y585068*
X35256Y585442*
X35290Y585828*
X35256Y586212*
X35156Y586586*
X34992Y586936*
X34770Y587254*
X34496Y587526*
X34180Y587748*
X33830Y587912*
X33456Y588012*
X33070Y588046*
X32686Y588012*
X32312Y587912*
X31962Y587748*
X31644Y587526*
X31372Y587254*
X31150Y586936*
X30986Y586586*
X30886Y586212*
X30852Y585828*
X30886Y585442*
X30986Y585068*
X31150Y584718*
X31372Y584402*
X31434Y584338*
X31520Y584210*
X31550Y584056*
Y583856*
X31518Y583696*
X31422Y583562*
X31284Y583478*
X31054Y583398*
X30910Y583308*
X30808Y583262*
X30698Y583246*
X29570*
X29416Y583276*
X29286Y583362*
X29200Y583492*
X29170Y583646*
Y584128*
X29142Y584376*
X29066Y584592*
X28946Y584784*
X28784Y584946*
X28592Y585068*
X28376Y585142*
X28128Y585170*
X24510*
X24358Y585200*
X24228Y585288*
X24140Y585418*
X24110Y585570*
Y586076*
X24082Y586324*
X24006Y586540*
X23886Y586732*
X23724Y586894*
X23532Y587014*
X23316Y587090*
X23095Y587114*
X23094*
Y587113*
Y585363*
Y585362*
X23250Y585314*
X23372Y585210*
X23444Y585064*
X23452Y584902*
X23396Y584750*
X23296Y584592*
X23220Y584376*
X23192Y584128*
Y583294*
X23168Y583154*
X23094Y583032*
Y581078*
G37*
G36*
X23196Y576283D02*
G01X23197Y576282D01*
X24945*
X24946*
Y576283*
Y577259*
Y577260*
X24945*
X23197*
X23196*
Y577259*
X23220Y577036*
X23268Y576902*
X23290Y576770*
X23268Y576638*
X23220Y576504*
X23196Y576283*
G37*
G36*
X27416D02*
G01Y576282D01*
X27417*
X29165*
X29166*
Y576283*
X29142Y576504*
X29094Y576638*
X29072Y576770*
X29094Y576902*
X29142Y577036*
X29166Y577259*
Y577260*
X29165*
X27417*
X27416*
Y577259*
Y576283*
G37*
G36*
X30504Y576348D02*
G01X30580Y576134D01*
X30700Y575940*
X30862Y575780*
X31054Y575658*
X31270Y575584*
X31518Y575556*
X32033*
X32034*
Y575557*
Y576817*
Y576818*
X32033*
X30477*
X30476*
Y576817*
Y576598*
X30504Y576348*
G37*
G36*
X34108Y575557D02*
G01Y575556D01*
X34109*
X34622*
X34872Y575584*
X35086Y575658*
X35280Y575780*
X35440Y575940*
X35562Y576134*
X35638Y576348*
X35666Y576598*
Y576817*
Y576818*
X35665*
X34109*
X34108*
Y576817*
Y575557*
G37*
G36*
X3704Y582239D02*
G01Y582238D01*
X3705*
X5261*
X5262*
Y582239*
Y583499*
Y583500*
X5261*
X4746*
X4498Y583472*
X4282Y583398*
X4090Y583276*
X3928Y583116*
X3808Y582922*
X3732Y582708*
X3704Y582458*
Y582239*
G37*
%LPD*%
G36*
X21908Y111691D02*
G01Y115628D01*
X22892*
Y111691*
X21908*
G37*
G36*
X27953Y112697D02*
G01X24016D01*
Y113681*
X27953*
Y112697*
G37*
G36*
X16004Y93031D02*
G01Y96968D01*
X16988*
Y93031*
X16004*
G37*
G36*
X15514Y129364D02*
G01X15548Y129502D01*
X15630Y129620*
X17790Y131782*
X17992Y132026*
X18132Y132290*
X18218Y132574*
X18250Y132890*
Y317114*
X18280Y317268*
X18368Y317398*
X18622Y317652*
X18752Y317740*
X18906Y317770*
X21240*
X21556Y317802*
X21840Y317888*
X22104Y318028*
X22348Y318230*
X23736Y319618*
X23938Y319862*
X24078Y320126*
X24164Y320410*
X24196Y320726*
Y323282*
X24226Y323434*
X24314Y323564*
X24442Y323652*
X24596Y323682*
X24850*
X25004Y323652*
X25132Y323564*
X25220Y323434*
X25250Y323282*
Y320086*
X25220Y319932*
X25132Y319802*
X23740Y318408*
X23538Y318164*
X23398Y317900*
X23312Y317616*
X23280Y317300*
Y316088*
X23248Y315932*
X23158Y315800*
X23024Y315714*
X22866Y315688*
X22710Y315726*
X22412Y315864*
X22040Y315964*
X21654Y315998*
X21268Y315964*
X20896Y315864*
X20544Y315702*
X20228Y315480*
X19954Y315206*
X19732Y314890*
X19570Y314538*
X19470Y314166*
X19434Y313760*
X19388Y313606*
X19268Y313380*
X19182Y313096*
X19150Y312780*
Y131710*
X19182Y131394*
X19268Y131110*
X19408Y130846*
X19610Y130602*
X20358Y129852*
X20444Y129722*
X20476Y129570*
X20444Y129416*
X20358Y129286*
X20228Y129200*
X20076Y129170*
X17736*
X17486Y129142*
X17272Y129066*
X17078Y128944*
X16916Y128782*
X16766Y128550*
X16654Y128434*
X16506Y128374*
X16348*
X16200Y128438*
X16090Y128552*
X15946Y128784*
X15784Y128944*
X15700Y128998*
X15594Y129094*
X15530Y129222*
X15514Y129364*
G37*
G36*
X28150Y569387D02*
G01X24213D01*
Y570371*
X28150*
Y569387*
G37*
G36*
Y583166D02*
G01X24213D01*
Y584150*
X28150*
Y583166*
G37*
G36*
X15078Y565448D02*
G01X11142D01*
Y566432*
X15079*
X15078Y565448*
G37*
G36*
Y567418D02*
G01X11142D01*
Y568402*
X15079*
X15078Y567418*
G37*
G36*
Y571353D02*
G01X11142D01*
Y572337*
X15079*
X15078Y571353*
G37*
G36*
Y573323D02*
G01X11142D01*
Y574307*
X15079*
X15078Y573323*
G37*
G36*
Y575293D02*
G01X11142D01*
Y576277*
X15079*
X15078Y575293*
G37*
G36*
Y577258D02*
G01X11142D01*
Y578242*
X15079*
X15078Y577258*
G37*
G36*
Y579228D02*
G01X11142D01*
Y580212*
X15079*
X15078Y579228*
G37*
G36*
Y581198D02*
G01X11142D01*
Y582182*
X15079*
X15078Y581198*
G37*
G36*
Y583168D02*
G01X11142D01*
Y584152*
X15079*
X15078Y583168*
G37*
G36*
X28150Y581198D02*
G01X24213D01*
Y582182*
X28150*
Y581198*
G37*
G36*
Y579229D02*
G01X24213D01*
Y580213*
X28150*
Y579229*
G37*
G36*
Y575294D02*
G01X24213D01*
Y576278*
X28150*
Y575294*
G37*
G36*
Y573322D02*
G01X24213D01*
Y574306*
X28150*
Y573322*
G37*
G36*
Y571352D02*
G01X24213D01*
Y572336*
X28150*
Y571352*
G37*
G36*
Y567418D02*
G01X24213D01*
Y568402*
X28150*
Y567418*
G37*
G36*
Y565448D02*
G01X24213D01*
Y566432*
X28150*
Y565448*
G37*
G36*
X16201Y582161D02*
G01Y586098D01*
X17185*
Y582161*
X16201*
G37*
G36*
X18168D02*
G01Y586098D01*
X19152*
Y582161*
X18168*
G37*
G36*
X20139D02*
G01Y586098D01*
X21123*
Y582161*
X20139*
G37*
G36*
X22105D02*
G01Y586098D01*
X23089*
Y582161*
X22105*
G37*
G36*
X15078Y569388D02*
G01X11142D01*
Y570372*
X15079*
X15078Y569388*
G37*
G36*
X28150Y577263D02*
G01X24213D01*
Y578247*
X28150*
Y577263*
G37*
G36*
X4670Y340210D02*
G01Y340894D01*
X4700Y341046*
X4788Y341176*
X4916Y341264*
X5070Y341294*
X5655*
X5656*
Y341295*
Y342648*
X5552Y342778*
X5512Y342938*
X5538Y343100*
X5628Y343238*
X7602Y345212*
X7732Y345300*
X7886Y345330*
X13760*
X14076Y345362*
X14360Y345446*
X14668Y345616*
X14826Y345662*
X14988Y345642*
X15130Y345560*
X15226Y345426*
X15260Y345264*
Y344826*
X15230Y344672*
X15193Y344617*
Y344616*
X16275*
X16276*
Y344617*
Y346396*
X16275*
X16142Y346480*
X16050Y346610*
X16016Y346766*
X16046Y346922*
X16134Y347054*
X17790Y348712*
X17992Y348956*
X18132Y349220*
X18218Y349504*
X18250Y349820*
Y556094*
X18280Y556248*
X18368Y556378*
X20592Y558602*
X20722Y558690*
X20874Y558720*
X21692Y558722*
X21998Y558762*
X22280Y558860*
X22538Y559008*
X22776Y559218*
X23702Y560212*
X23860Y560414*
X24002Y560680*
X24088Y560964*
X24120Y561280*
Y564028*
X24150Y564182*
X24238Y564310*
X24366Y564398*
X24520Y564428*
X24850*
X25004Y564398*
X25132Y564310*
X25220Y564182*
X25250Y564028*
Y560246*
X25220Y560092*
X25132Y559962*
X23350Y558178*
X23148Y557934*
X23008Y557670*
X22944Y557460*
X22872Y557324*
X22754Y557226*
X22608Y557178*
X22456Y557190*
X22038Y557302*
X21654Y557336*
X21268Y557302*
X20896Y557202*
X20544Y557040*
X20228Y556818*
X19954Y556544*
X19732Y556228*
X19570Y555876*
X19470Y555504*
X19432Y554982*
X19394Y554874*
X19308Y554712*
X19222Y554426*
X19190Y554110*
Y346772*
X19160Y346618*
X19072Y346488*
X18944Y346402*
X18790Y346372*
X18270*
X18020Y346344*
X17888Y346296*
X17756Y346274*
X17624Y346296*
X17490Y346344*
X17269Y346368*
X17268*
Y346367*
Y345684*
X17226Y345326*
Y344694*
X17184Y344292*
X17226Y343890*
X17220Y343364*
Y336958*
X17188Y336806*
X17102Y336676*
X16972Y336590*
X16820Y336558*
X16578*
X16424Y336590*
X16294Y336676*
X16208Y336806*
X16178Y336958*
Y337474*
X16150Y337722*
X16102Y337856*
X16080Y337988*
X16102Y338120*
X16150Y338256*
X16178Y338504*
Y339444*
X16150Y339692*
X16102Y339826*
X16080Y339958*
X16114Y340126*
X16178Y340242*
X16276Y340330*
Y342147*
Y342148*
X16275*
X16040*
X15928Y342164*
X15826Y342210*
X15598Y342352*
X15384Y342428*
X15136Y342456*
X11244*
X10898Y342418*
X10205*
X10204*
Y342417*
X10228Y342196*
X10276Y342060*
X10298Y341928*
X10276Y341796*
X10228Y341662*
X10200Y341414*
Y340474*
X10228Y340226*
X10276Y340090*
X10298Y339958*
X10276Y339826*
X10228Y339692*
X10200Y339444*
Y338924*
X10170Y338770*
X10084Y338640*
X9954Y338554*
X9800Y338524*
X9530*
X9366Y338558*
X9232Y338656*
X9148Y338800*
X9132Y338966*
X9260Y339340*
X9288Y339590*
Y339809*
Y339810*
X9287*
X7731*
X7730*
Y339809*
Y339018*
X7700Y338866*
X7612Y338736*
X7484Y338650*
X7330Y338618*
X6056*
X5902Y338650*
X5772Y338736*
X5686Y338866*
X5656Y339018*
Y339809*
Y339810*
X5655*
X5070*
X4916Y339840*
X4788Y339926*
X4700Y340056*
X4670Y340210*
G37*
%LPC*%
G36*
X10204Y343411D02*
G01Y343410D01*
X10205*
X11953*
X11954*
Y343411*
Y344425*
Y344426*
X11953*
X11242*
X10994Y344398*
X10780Y344322*
X10586Y344202*
X10426Y344040*
X10304Y343848*
X10228Y343632*
X10204Y343411*
G37*
G36*
X14424D02*
G01Y343410D01*
X14425*
X14459*
X14460*
Y343411*
Y344216*
X14490Y344370*
X14527Y344425*
X14526Y344426*
X14425*
X14424*
Y344425*
Y343411*
G37*
G36*
X7730Y341295D02*
G01Y341294D01*
X7731*
X9287*
X9288*
Y341295*
Y341514*
X9260Y341762*
X9184Y341978*
X9062Y342170*
X8902Y342332*
X8708Y342452*
X8494Y342528*
X8244Y342556*
X7731*
X7730*
Y342555*
Y341295*
G37*
%LPD*%
G36*
X4280Y110288D02*
G01Y110972D01*
X4310Y111126*
X4398Y111256*
X4526Y111342*
X4680Y111372*
X5261*
X5262*
Y111373*
Y112633*
Y112634*
X5261*
X4724Y112632*
X4558Y112648*
X4414Y112732*
X4314Y112866*
X4280Y113030*
Y122834*
X4310Y122988*
X4398Y123116*
X9510Y128222*
X9640Y128308*
X9794Y128340*
X9946Y128308*
X10076Y128222*
X10162Y128092*
X10194Y127940*
Y126431*
Y126430*
X10195*
X11947*
X11948*
Y126431*
Y128390*
X11978Y128544*
X12064Y128672*
X12194Y128760*
X12348Y128790*
X14016*
X14168Y128760*
X14298Y128672*
X14386Y128544*
X14416Y128390*
Y126431*
Y126430*
X14417*
X16294*
X16446Y126400*
X16576Y126314*
X16662Y126184*
X16694Y126030*
Y122394*
X16662Y122240*
X16576Y122112*
X16446Y122024*
X16294Y121994*
X14417*
X14416*
Y121993*
Y120334*
X14380Y120168*
X14280Y120032*
X14132Y119950*
X13986Y119906*
X13724Y119766*
X13478Y119564*
X13170Y119258*
X13056Y119178*
X12922Y119142*
X12606Y119114*
X12450Y119072*
X12306Y119060*
X12166Y119102*
X12050Y119190*
X11974Y119314*
X11948Y119458*
Y121993*
Y121994*
X11947*
X10195*
X10194*
Y121993*
Y120298*
X10222Y120050*
X10296Y119834*
X10418Y119642*
X10578Y119480*
X10772Y119358*
X10986Y119284*
X11270Y119254*
X11412Y119210*
X11530Y119118*
X11604Y118988*
X11628Y118842*
X11594Y118696*
X11510Y118572*
X11292Y118356*
X11070Y118038*
X10908Y117688*
X10808Y117314*
X10774Y116928*
X10808Y116544*
X10908Y116170*
X11070Y115820*
X11292Y115502*
X11410Y115386*
X11496Y115256*
X11528Y115102*
X11496Y114950*
X11410Y114820*
X11280Y114734*
X11128Y114702*
X10968*
X10718Y114674*
X10504Y114600*
X10310Y114478*
X10150Y114318*
X10028Y114124*
X9952Y113910*
X9928Y113687*
Y113686*
X9929*
X11677*
X11678*
Y113687*
Y114474*
X11706Y114618*
X11782Y114744*
X11898Y114832*
X12040Y114872*
X12186Y114860*
X12608Y114744*
X12992Y114710*
X13378Y114744*
X13644Y114816*
X13790Y114828*
X13930Y114786*
X14044Y114696*
X14120Y114572*
X14148Y114430*
Y113687*
Y113686*
X14149*
X14183*
X14184*
Y113687*
Y114494*
X14214Y114648*
X14302Y114776*
X14430Y114864*
X14584Y114894*
X15999*
X16000*
Y114895*
Y116584*
X16030Y116738*
X16118Y116866*
X16248Y116954*
X16400Y116984*
X16592*
X16746Y116954*
X16876Y116866*
X16962Y116738*
X16992Y116584*
X16990Y115910*
X16952Y115604*
Y111716*
X16992Y111360*
Y110675*
Y110674*
X16993*
X17214Y110700*
X17348Y110746*
X17480Y110768*
X17612Y110746*
X17744Y110700*
X17994Y110672*
X18514*
X18658Y110644*
X18784Y110568*
X18872Y110452*
X18912Y110310*
X18946Y109978*
X19032Y109694*
X19172Y109432*
X19262Y109322*
X19332Y109194*
X19352Y109050*
X19318Y108906*
X19234Y108786*
X16500Y106052*
X16374Y105966*
X16224Y105934*
X16074Y105962*
X15944Y106044*
X15854Y106168*
X15818Y106316*
X15840Y106466*
X15874Y106562*
X15902Y106812*
Y107750*
X15874Y108000*
X15826Y108134*
X15804Y108266*
X15826Y108398*
X15874Y108532*
X15902Y108782*
Y109720*
X15874Y109970*
X15826Y110104*
X15804Y110236*
X15840Y110404*
X15902Y110518*
X16000Y110608*
Y112425*
Y112426*
X15999*
X15764*
X15652Y112442*
X15550Y112486*
X15324Y112630*
X15108Y112704*
X14860Y112732*
X10968*
X10622Y112694*
X9929*
X9928*
Y112693*
X9952Y112472*
X10000Y112338*
X10022Y112206*
X10000Y112074*
X9952Y111940*
X9924Y111690*
Y110752*
X9952Y110502*
X10000Y110368*
X10022Y110236*
X10000Y110104*
X9952Y109970*
X9924Y109720*
Y109200*
X9894Y109048*
X9808Y108918*
X9678Y108832*
X9524Y108800*
X9212*
X9064Y108830*
X8936Y108912*
X8848Y109036*
X8814Y109184*
X8836Y109334*
X8866Y109420*
X8894Y109668*
Y109887*
Y109888*
X8893*
X7337*
X7336*
Y109887*
Y109168*
X7300Y109000*
X7196Y108862*
X7044Y108782*
X6794Y108712*
X6686Y108698*
X5662*
X5508Y108728*
X5378Y108814*
X5292Y108944*
X5262Y109098*
Y109887*
Y109888*
X5261*
X4680*
X4526Y109918*
X4398Y110006*
X4310Y110134*
X4280Y110288*
G37*
G36*
X10924Y323282D02*
G01X10954Y323434D01*
X11040Y323564*
X11170Y323652*
X11324Y323682*
X14860*
X15012Y323652*
X15142Y323564*
X15230Y323434*
X15260Y323282*
Y322776*
X15288Y322528*
X15364Y322312*
X15484Y322120*
X15646Y321958*
X15838Y321838*
X16054Y321762*
X16302Y321734*
X17242*
X17490Y321762*
X17622Y321808*
X17756Y321830*
X17888Y321808*
X18020Y321762*
X18241Y321738*
X18242*
Y321739*
Y322420*
X18284Y322780*
Y326666*
X18242Y327026*
Y327707*
Y327708*
X18241*
X18020Y327684*
X17888Y327636*
X17756Y327614*
X17622Y327636*
X17490Y327684*
X17242Y327712*
X16494*
X16334Y327744*
X16200Y327840*
X16102Y328016*
X16080Y328148*
X16102Y328280*
X16150Y328416*
X16178Y328664*
Y329604*
X16150Y329852*
X16104Y329984*
X16080Y330116*
X16104Y330248*
X16150Y330380*
X16178Y330630*
Y331568*
X16150Y331818*
X16102Y331952*
X16080Y332084*
X16102Y332216*
X16150Y332350*
X16178Y332600*
Y332882*
X16208Y333034*
X16294Y333164*
X16424Y333250*
X16578Y333282*
X16730Y333250*
X16860Y333164*
X17078Y332946*
X17394Y332724*
X17746Y332562*
X18118Y332462*
X18504Y332428*
X18890Y332462*
X19262Y332562*
X19614Y332724*
X19930Y332946*
X20204Y333220*
X20426Y333536*
X20588Y333888*
X20688Y334260*
X20722Y334646*
X20688Y335032*
X20588Y335404*
X20426Y335756*
X20332Y335890*
X20278Y335998*
X20260Y336118*
Y339994*
X20290Y340148*
X20376Y340278*
X20506Y340364*
X20660Y340394*
X21180*
X21428Y340422*
X21562Y340468*
X21694Y340492*
X21826Y340468*
X21958Y340422*
X22179Y340398*
X22180*
Y340399*
Y341082*
X22222Y341438*
Y343300*
X22230Y343400*
Y346704*
X22260Y346858*
X22348Y346988*
X22476Y347074*
X22630Y347104*
X22784Y347074*
X22912Y346988*
X23056Y346844*
X23142Y346714*
X23174Y346562*
Y344617*
Y344616*
X23175*
X23328Y344568*
X23452Y344462*
X23524Y344318*
X23532Y344156*
X23474Y344004*
X23374Y343846*
X23300Y343630*
X23272Y343382*
Y342548*
X23246Y342408*
X23174Y342286*
Y340330*
X23270Y340242*
X23346Y340092*
X23368Y339960*
X23346Y339828*
X23300Y339694*
X23272Y339444*
Y338506*
X23300Y338256*
X23346Y338124*
X23368Y337992*
X23346Y337860*
X23300Y337728*
X23274Y337505*
Y337504*
X23275*
X23956*
X24316Y337462*
X28204*
X28564Y337504*
X29245*
X29246*
Y337505*
X29220Y337728*
X29174Y337860*
X29152Y337992*
X29174Y338124*
X29220Y338256*
X29248Y338506*
Y339024*
X29278Y339176*
X29366Y339306*
X29496Y339394*
X29700Y339424*
X29842Y339398*
X29966Y339322*
X30054Y339208*
X30096Y339068*
X30110Y338948*
X30186Y338732*
X30306Y338540*
X30374Y338472*
X30460Y338342*
X30490Y338190*
X30460Y338036*
X30374Y337906*
X30306Y337840*
X30186Y337646*
X30110Y337432*
X30082Y337182*
Y336965*
Y336964*
X30083*
X31639*
X31640*
Y336965*
Y337754*
X31670Y337906*
X31756Y338036*
X31886Y338124*
X32040Y338154*
X33314*
X33468Y338124*
X33598Y338036*
X33684Y337906*
X33714Y337754*
Y336965*
Y336964*
X33715*
X34300*
X34454Y336932*
X34582Y336846*
X34670Y336716*
X34700Y336564*
Y335878*
X34670Y335726*
X34582Y335596*
X34454Y335510*
X34300Y335478*
X33715*
X33714*
Y335477*
Y334217*
Y334216*
X33715*
X34256Y334220*
X34422Y334204*
X34566Y334120*
X34666Y333986*
X34700Y333822*
Y329574*
X34670Y329420*
X34584Y329292*
X32126Y326828*
X31996Y326740*
X31844Y326710*
X29648*
X29496Y326740*
X29366Y326828*
X29278Y326956*
X29248Y327110*
Y327634*
X29220Y327882*
X29174Y328016*
X29152Y328148*
X29174Y328280*
X29220Y328414*
X29248Y328664*
Y329602*
X29220Y329852*
X29174Y329984*
X29152Y330116*
X29174Y330248*
X29220Y330380*
X29248Y330628*
Y331568*
X29220Y331816*
X29174Y331950*
X29152Y332082*
X29174Y332214*
X29220Y332350*
X29248Y332598*
Y333538*
X29220Y333786*
X29174Y333922*
X29150Y334054*
X29174Y334186*
X29220Y334322*
X29246Y334543*
Y334544*
X29245*
X28500Y334546*
X28206Y334580*
X24314*
X23974Y334544*
X23275*
X23274*
Y334543*
X23300Y334322*
X23346Y334186*
X23370Y334054*
X23346Y333922*
X23300Y333786*
X23272Y333538*
Y332598*
X23300Y332350*
X23346Y332214*
X23368Y332082*
X23346Y331950*
X23300Y331816*
X23272Y331568*
Y330628*
X23300Y330380*
X23346Y330248*
X23368Y330116*
X23346Y329984*
X23300Y329852*
X23272Y329602*
Y328664*
X23300Y328414*
X23346Y328280*
X23368Y328148*
X23334Y327980*
X23250Y327840*
X23116Y327744*
X22956Y327712*
X22208*
X21958Y327684*
X21824Y327636*
X21692Y327614*
X21560Y327636*
X21426Y327684*
X21178Y327712*
X20238*
X19990Y327684*
X19856Y327636*
X19724Y327614*
X19590Y327636*
X19456Y327684*
X19235Y327708*
X19234*
Y327707*
X19232Y326968*
X19196Y326668*
Y322778*
X19234Y322430*
Y321739*
Y321738*
X19235*
X19456Y321762*
X19590Y321810*
X19724Y321832*
X19856Y321810*
X19990Y321762*
X20238Y321734*
X20588*
X20742Y321704*
X20872Y321618*
X20958Y321488*
X20988Y321334*
X20958Y321182*
X20872Y321052*
X20748Y320928*
X20618Y320840*
X20464Y320810*
X18130*
X17814Y320778*
X17530Y320692*
X17266Y320552*
X17022Y320350*
X16418Y319748*
X16288Y319660*
X16134Y319630*
X14576*
X14422Y319660*
X14292Y319748*
X11040Y322998*
X10954Y323128*
X10924Y323282*
G37*
G36*
X20137Y563501D02*
G01Y567438D01*
X21121*
Y563501*
X20137*
G37*
G36*
X22105D02*
G01Y567438D01*
X23089*
Y563501*
X22105*
G37*
G36*
X18167D02*
G01Y567438D01*
X19151*
Y563501*
X18167*
G37*
G36*
X16201D02*
G01Y567438D01*
X17185*
Y563501*
X16201*
G37*
G36*
X24160Y350206D02*
G01Y551374D01*
X24190Y551528*
X24278Y551658*
X24868Y552248*
X24996Y552334*
X25150Y552364*
X25304Y552334*
X25432Y552248*
X25520Y552118*
X25550Y551964*
X25554Y350418*
X25586Y350162*
X25668Y349944*
X25808Y349742*
X25928Y349622*
X26068Y349518*
X26288Y349420*
X26580Y349374*
X37950*
X38104Y349344*
X38232Y349256*
X38320Y349126*
X38350Y348974*
Y344126*
X38312Y343956*
X38204Y343818*
X38048Y343738*
X37872Y343734*
X37712Y343806*
X37598Y343938*
X37482Y344154*
X37280Y344398*
X33768Y347910*
X33524Y348112*
X33260Y348252*
X32976Y348338*
X32660Y348370*
X25996*
X25842Y348400*
X25712Y348488*
X24278Y349922*
X24190Y350052*
X24160Y350206*
G37*
%LPC*%
G36*
X7337Y111372D02*
G01X8893D01*
X8894Y111373*
Y111592*
X8866Y111840*
X8790Y112056*
X8670Y112248*
X8508Y112410*
X8316Y112532*
X8100Y112606*
X7852Y112634*
X7337*
X7336Y112633*
Y111373*
X7337Y111372*
G37*
G36*
X27494Y335536D02*
G01X27495D01*
X29245*
X29246*
Y335537*
X29220Y335758*
X29174Y335892*
X29152Y336024*
X29174Y336156*
X29220Y336290*
X29246Y336511*
Y336512*
X29245*
X27495*
X27494*
Y336511*
Y335537*
Y335536*
G37*
G36*
X30110Y335010D02*
G01X30186Y334796D01*
X30306Y334602*
X30468Y334442*
X30660Y334320*
X30876Y334244*
X31124Y334216*
X31639*
X31640*
Y334217*
Y335477*
Y335478*
X31639*
X30083*
X30082*
Y335477*
Y335260*
X30110Y335010*
G37*
G36*
X23274Y335536D02*
G01X23275D01*
X25025*
X25026*
Y335537*
Y336511*
Y336512*
X25025*
X23275*
X23274*
Y336511*
X23300Y336290*
X23346Y336156*
X23368Y336024*
X23346Y335892*
X23300Y335758*
X23274Y335537*
Y335536*
G37*
%LPD*%
G36*
X14882Y110729D02*
G01X10945D01*
Y111713*
X14882*
Y110729*
G37*
G36*
Y112699D02*
G01X10945D01*
Y113683*
X14882*
Y112699*
G37*
G36*
X17971Y111691D02*
G01Y115628D01*
X18955*
Y111691*
X17971*
G37*
G36*
X14882Y106789D02*
G01X10945D01*
Y107773*
X14882*
Y106789*
G37*
G36*
X16004Y111691D02*
G01Y115628D01*
X16988*
Y111691*
X16004*
G37*
G36*
X14882Y108758D02*
G01X10945D01*
Y109743*
X14882*
Y108758*
G37*
G36*
X17470Y102534D02*
G01X17496Y102700D01*
X17586Y102838*
X21474Y106726*
X21588Y106806*
X21722Y106842*
X22040Y106870*
X22592Y107022*
X22742Y107002*
X22872Y106928*
X22968Y106812*
X23012Y106668*
X23024Y106568*
X23070Y106434*
X23094Y106302*
X23070Y106170*
X23024Y106036*
X22998Y105813*
X22999Y105812*
X24749*
X24750Y105813*
Y106789*
X24749Y106790*
X23480*
X23328Y106820*
X23198Y106906*
X23110Y107034*
X23080Y107188*
X23110Y107340*
X23194Y107470*
X23384Y107662*
X23480Y107734*
X23596Y107776*
X23716Y107778*
X24040Y107740*
X27928*
X28288Y107782*
X28969*
X28970Y107783*
X28944Y108004*
X28898Y108136*
X28876Y108268*
X28898Y108400*
X28944Y108534*
X28972Y108782*
Y109300*
X29004Y109454*
X29090Y109584*
X29220Y109670*
X29372Y109700*
X30122*
X30282Y109668*
X30414Y109574*
X30500Y109434*
X30580Y109204*
X30700Y109012*
X30768Y108944*
X30854Y108814*
X30884Y108662*
X30854Y108508*
X30768Y108378*
X30700Y108312*
X30580Y108118*
X30504Y107904*
X30476Y107654*
Y107437*
X30477Y107436*
X32033*
X32034Y107437*
Y108226*
X32064Y108380*
X32150Y108508*
X32280Y108596*
X32434Y108626*
X33708*
X33862Y108596*
X33990Y108508*
X34078Y108380*
X34108Y108226*
Y107437*
Y107436*
X34690*
X34844Y107404*
X34972Y107318*
X35060Y107188*
X35090Y107036*
Y106352*
X35060Y106198*
X34972Y106068*
X34844Y105982*
X34690Y105952*
X34108*
Y105951*
Y104689*
Y104688*
X34646Y104692*
X34812Y104676*
X34956Y104592*
X35056Y104458*
X35090Y104294*
Y94096*
X35060Y93942*
X34972Y93812*
X32124Y90964*
X31994Y90878*
X31842Y90846*
X31688Y90878*
X31558Y90964*
X31472Y91094*
X31442Y91246*
Y92894*
X31410Y93210*
X31324Y93494*
X31184Y93756*
X30982Y94002*
X29062Y95922*
X28986Y96030*
X28944Y96190*
X28898Y96324*
X28876Y96456*
X28898Y96588*
X28944Y96722*
X28972Y96972*
Y97910*
X28944Y98160*
X28898Y98294*
X28876Y98426*
X28898Y98558*
X28944Y98692*
X28972Y98940*
Y99880*
X28944Y100128*
X28898Y100260*
X28876Y100392*
X28898Y100524*
X28944Y100656*
X28972Y100906*
Y101844*
X28944Y102094*
X28898Y102228*
X28876Y102360*
X28898Y102492*
X28944Y102626*
X28972Y102876*
Y103814*
X28944Y104064*
X28898Y104198*
X28874Y104330*
X28898Y104462*
X28944Y104598*
X28970Y104819*
X28969Y104820*
X28224Y104824*
X27930Y104856*
X24038*
X23698Y104820*
X22999*
X22998Y104819*
X23024Y104598*
X23072Y104462*
X23094Y104330*
X23072Y104198*
X23024Y104064*
X22996Y103814*
Y102876*
X23024Y102626*
X23070Y102492*
X23094Y102360*
X23070Y102228*
X23024Y102094*
X22996Y101844*
Y100906*
X23024Y100656*
X23070Y100524*
X23092Y100392*
X23070Y100260*
X23024Y100128*
X22996Y99880*
Y98940*
X23024Y98692*
X23070Y98558*
X23094Y98426*
X23058Y98256*
X22974Y98116*
X22840Y98022*
X22680Y97988*
X21932*
X21682Y97960*
X21548Y97914*
X21416Y97890*
X21284Y97914*
X21150Y97960*
X20902Y97988*
X20382*
X20230Y98018*
X20100Y98106*
X20012Y98236*
X19982Y98388*
Y98842*
X19952Y99156*
X19864Y99442*
X19724Y99704*
X19626Y99824*
X19566Y99926*
X19538Y100042*
X19508Y100386*
X19408Y100758*
X19244Y101110*
X19022Y101426*
X18748Y101700*
X18432Y101922*
X18082Y102084*
X17766Y102170*
X17618Y102244*
X17514Y102374*
X17470Y102534*
G37*
G36*
X15157Y328642D02*
G01X11220D01*
Y329626*
X15157*
Y328642*
G37*
G36*
Y342422D02*
G01X11220D01*
Y343406*
X15157*
Y342422*
G37*
G36*
X28228Y336517D02*
G01X24291D01*
Y337501*
X28229*
X28228Y336517*
G37*
G36*
X15157Y324702D02*
G01X11220D01*
Y325686*
X15157*
Y324702*
G37*
G36*
Y332577D02*
G01X11220D01*
Y333561*
X15157*
Y332577*
G37*
G36*
Y336512D02*
G01X11220D01*
Y337496*
X15157*
Y336512*
G37*
G36*
Y340452D02*
G01X11220D01*
Y341436*
X15157*
Y340452*
G37*
G36*
X28228D02*
G01X24291D01*
Y341436*
X28229*
X28228Y340452*
G37*
G36*
Y338483D02*
G01X24291D01*
Y339467*
X28229*
X28228Y338483*
G37*
G36*
Y334548D02*
G01X24291D01*
Y335532*
X28229*
X28228Y334548*
G37*
G36*
Y330606D02*
G01X24291D01*
Y331590*
X28229*
X28228Y330606*
G37*
G36*
Y324702D02*
G01X24291D01*
Y325686*
X28229*
X28228Y324702*
G37*
G36*
X18247Y341414D02*
G01Y345351D01*
X19231*
Y341414*
X18247*
G37*
G36*
X20218D02*
G01Y345351D01*
X21202*
Y341414*
X20218*
G37*
G36*
X20216Y322754D02*
G01Y326691D01*
X21200*
Y322754*
X20216*
G37*
G36*
X18246D02*
G01Y326691D01*
X19230*
Y322754*
X18246*
G37*
G36*
X15157Y326671D02*
G01X11220D01*
Y327656*
X15157*
Y326671*
G37*
G36*
Y334546D02*
G01X11220D01*
Y335531*
X15157*
Y334546*
G37*
G36*
X28228Y332575D02*
G01X24291D01*
Y333560*
X28229*
X28228Y332575*
G37*
G36*
Y328640D02*
G01X24291D01*
Y329625*
X28229*
X28228Y328640*
G37*
G36*
Y326671D02*
G01X24291D01*
Y327656*
X28229*
X28228Y326671*
G37*
G36*
Y342419D02*
G01X24291D01*
Y343404*
X28229*
X28228Y342419*
G37*
G36*
X16280Y341414D02*
G01Y345351D01*
X17264*
Y341414*
X16280*
G37*
G36*
X22184D02*
G01Y345351D01*
X23168*
Y341414*
X22184*
G37*
G36*
Y322754D02*
G01Y326691D01*
X23168*
Y322754*
X22184*
G37*
G36*
X16280D02*
G01Y326691D01*
X17264*
Y322754*
X16280*
G37*
G36*
X15157Y330606D02*
G01X11220D01*
Y331591*
X15157*
Y330606*
G37*
G36*
Y338481D02*
G01X11220D01*
Y339466*
X15157*
Y338481*
G37*
%LPC*%
G36*
X28970Y105812D02*
G01X27218D01*
Y106790*
X28970*
X28944Y106568*
X28898Y106434*
X28876Y106302*
X28898Y106170*
X28944Y106036*
X28970Y105812*
G37*
G36*
X32034Y104688D02*
G01X31518D01*
X31270Y104716*
X31054Y104792*
X30862Y104914*
X30700Y105074*
X30580Y105268*
X30504Y105482*
X30476Y105732*
Y105952*
X32034*
Y104688*
G37*
%LPD*%
G36*
X27953Y106794D02*
G01X24016D01*
Y107778*
X27953*
Y106794*
G37*
G36*
Y104825D02*
G01X24016D01*
Y105809*
X27953*
Y104825*
G37*
G36*
Y100883D02*
G01X24016D01*
Y101867*
X27953*
Y100883*
G37*
G36*
Y94979D02*
G01X24016D01*
Y95963*
X27953*
Y94979*
G37*
G36*
Y108760D02*
G01X24016D01*
Y109744*
X27953*
Y108760*
G37*
G36*
Y98918D02*
G01X24016D01*
Y99902*
X27953*
Y98918*
G37*
G36*
X21908Y93031D02*
G01Y96968D01*
X22892*
Y93031*
X21908*
G37*
G36*
X19940D02*
G01Y96968D01*
X20924*
Y93031*
X19940*
G37*
G36*
X17970D02*
G01Y96968D01*
X18954*
Y93031*
X17970*
G37*
G36*
X27953Y102852D02*
G01X24016D01*
Y103837*
X27953*
Y102852*
G37*
G36*
Y96948D02*
G01X24016D01*
Y97933*
X27953*
Y96948*
G37*
G36*
X26130Y80154D02*
G01Y80504D01*
X26160Y80658*
X26248Y80788*
X37668Y92208*
X37796Y92294*
X37950Y92324*
X38104Y92294*
X38232Y92208*
X38320Y92078*
X38350Y91924*
Y80160*
X38320Y80008*
X38232Y79878*
X38104Y79790*
X37950Y79760*
X26600*
X26412Y79772*
X26264Y79856*
X26166Y79990*
X26130Y80154*
G37*
G54D13*
X20669Y-51181D03*
X18700D03*
X16732D03*
X22637D03*
X24606D03*
X14763D03*
G54D14*
X19681Y124213D03*
X26181D03*
X13181D03*
G54D15*
X33071Y110630D03*
Y106693D03*
X6299Y110630D03*
Y106693D03*
X32677Y340158D03*
Y336221D03*
X6693Y340551D03*
Y336614D03*
X33071Y581496D03*
Y577559D03*
X6299Y581496D03*
Y577559D03*
G54D11*
X20866Y85433D03*
X16929Y85039D03*
X12992Y116929D03*
X17323Y100000D03*
X21654Y109055D03*
Y313780D03*
X18504Y334646D03*
X21654Y555118D03*
X18504Y576378D03*
X32677Y331102D03*
X12204Y561024D03*
X7874Y343307D03*
X21654Y338189D03*
X6693Y114567D03*
X30315Y115748D03*
X32677Y101575D03*
X3937Y82677D03*
X35433D03*
Y129528D03*
X36221Y347244D03*
X4331Y319291D03*
X3543Y129528D03*
X32677Y342914D03*
X33071Y585827D03*
G54D10*
X22400Y113660D02*
G01Y114526D01*
X23622Y115748*
X30315*
X20434Y113660D02*
G01X18463D01*
X22640Y-55900D02*
G01Y82090D01*
X29921Y89371*
Y92913*
X27364Y95471*
X25984*
X22400Y95000D02*
G01Y91690D01*
X20870Y90160*
X18110*
X13780Y85830*
Y84250*
X16730Y81300*
Y-55900*
X3150Y340940D02*
G01Y328740D01*
X13780Y318110*
X16930*
X18110Y319290*
X21260*
X22676Y320706*
Y324723*
X36220Y340940D02*
G01Y328780D01*
X32640Y325190*
X26260*
X32677Y336221D02*
G01X31496Y335040D01*
X26260*
X18504Y334646D02*
G01X18111Y335039D01*
X13189*
X3150Y340940D02*
G01Y342910D01*
X7090Y346850*
X13780*
X16730Y349800*
Y556890*
X20080Y560240*
X21650*
X22600Y561260*
Y565470*
X33071Y581496D02*
G01Y585827D01*
X22600Y584130D02*
G01Y587950D01*
X21650Y588980*
X17720*
X16693Y587953*
Y584129*
X13110Y575785D02*
G01X17911D01*
X18504Y576378*
X18659Y565469D02*
G01Y576223D01*
X18504Y576378*
X13110Y575785D02*
G01Y573815D01*
X12913Y105316D02*
G01Y103346D01*
X33070Y110630D02*
G01Y119290D01*
X28150Y124210*
X26180*
X22676Y343383D02*
G01Y339212D01*
X21654Y338189*
X32677Y340158D02*
G01Y342914D01*
X36220Y340940D02*
G01Y343310D01*
X32680Y346850*
X25200*
X22640Y349410*
Y552170*
X24410Y553940*
Y557090*
X26770Y559450*
Y565940*
X26260Y340944D02*
G01X31891D01*
X32677Y340158*
X21650Y555120D02*
G01X20710Y554130D01*
Y343380*
X24610Y-55900D02*
G01Y81300D01*
X36610Y93300*
Y123230*
X29530Y130310*
X24810*
X22640Y132480*
Y310820*
X24800Y312990*
Y317320*
X26770Y319290*
Y324684*
X26260Y325194*
X13189Y335039D02*
G01Y333069D01*
X18504Y334646D02*
G01X18739Y334881D01*
Y343383*
X13189Y337004D02*
G01X7083D01*
X6693Y336614*
X12598Y577757D02*
G01X7283D01*
X6693Y577166*
X12992Y116929D02*
G01X14567Y118504D01*
X18110*
X19681Y120075*
Y124213*
X17323Y100000D02*
G01X18462Y98861D01*
Y95000*
X12598Y583654D02*
G01X9243D01*
X6693Y581103*
X18700Y585237D02*
G01X20669D01*
X26771Y581726D02*
G01X32053D01*
X32677Y581102*
X26771Y575820D02*
G01X31331D01*
X32677Y577165*
X18700Y585237D02*
G01Y576574D01*
X18504Y576378*
X12913Y103346D02*
G01X15944D01*
X21654Y109055*
X18701Y344292D02*
G01X20669D01*
X20434Y113660D02*
G01Y117284D01*
X21654Y118504*
X24803*
X26181Y119882*
Y124212*
Y123031D02*
G01Y124212D01*
X12913Y113191D02*
G01X9254D01*
X6693Y110630*
X12913Y107281D02*
G01X7281D01*
X6693Y106693*
X25984Y105317D02*
G01X31302D01*
X32677Y106692*
Y110629D02*
G01X32085Y111221D01*
X25984*
X20434Y113660D02*
G01Y110275D01*
X21654Y109055*
X16930Y85040D02*
G01Y86220D01*
X18900Y88190*
X23230*
X24800Y89760*
X24803Y92520*
X16930Y85040D02*
G01Y84250D01*
X18700Y82480*
Y-55900*
X20866Y85433D02*
G01X20669Y85236D01*
Y-55904*
X16730Y312070D02*
G01Y313160D01*
Y313160D02*
G01Y318110D01*
X18700Y310240D02*
G01Y315944D01*
X19685Y316929*
X21649*
X24800Y320080*
Y322830*
Y562990D02*
G01Y560230D01*
X22830Y558270*
X20870*
X18700Y556100*
Y550000*
X26180Y124210D02*
G01Y126180D01*
X20670Y131690*
Y312800*
X21650Y313780*
X14760Y-55900D02*
G01Y80520D01*
X2760Y92520*
Y123630*
X9450Y130310*
X14170*
X16730Y132870*
Y312070*
X13181Y124213D02*
G01Y126173D01*
X18504Y131496*
X11811Y114961D02*
G01X26772D01*
Y94095*
X11811*
Y114961*
M02*
