G04 CAM350 V9.5.1 (Build 211) Date:  Wed Jul 14 18:57:04 2021 *
G04 Database: C:\Users\Administrator\Desktop\220465AS2.cam *
G04 Layer 2: GTO *
%FSLAX25Y25*%
%MOIN*%
%SFA1.000B1.000*%

%MIA0B0*%
%IPPOS*%
%ADD18C,0.00670*%
%ADD19C,0.00670*%
%ADD20C,0.00790*%
%ADD21C,0.00600*%
%LNGTO*%
%LPD*%
G54D20*
X11057Y87455D02*
G01X10257Y87185D01*
X9717Y86385*
X9447Y85035*
Y84235*
X9717Y82895*
X10257Y82085*
X11057Y81815*
X11597*
X12397Y82085*
X12937Y82895*
X13207Y84235*
Y85035*
X12937Y86385*
X12397Y87185*
X11597Y87455*
X11057*
X17127D02*
G01X14977Y81815D01*
X17127Y87455D02*
G01X19277Y81815D01*
X15787Y83695D02*
G01X18467D01*
X25877Y88525D02*
G01X21047Y79935D01*
X27647Y87455D02*
G01Y81815D01*
Y87455D02*
G01X30067D01*
X30867Y87185*
X31137Y86915*
X31407Y86385*
Y85845*
X31137Y85305*
X30867Y85035*
X30067Y84775*
X27647D02*
G01X30067D01*
X30867Y84505*
X31137Y84235*
X31407Y83695*
Y82895*
X31137Y82355*
X30867Y82085*
X30067Y81815*
X27647*
X15350Y549770D02*
G01X15890Y550040D01*
X16700Y550840*
Y545200*
X18470Y550840D02*
G01Y545200D01*
Y550840D02*
G01X20880D01*
X21690Y550570*
X21960Y550300*
X22230Y549770*
Y549230*
X21960Y548690*
X21690Y548430*
X20880Y548160*
X18470D02*
G01X20880D01*
X21690Y547890*
X21960Y547620*
X22230Y547080*
Y546280*
X21960Y545740*
X21690Y545470*
X20880Y545200*
X18470*
X16140Y307640D02*
G01X16680Y307910D01*
X17480Y308720*
Y303080*
X21400Y308720D02*
G01X19260Y303080D01*
X21400Y308720D02*
G01X23550Y303080D01*
X20060Y304960D02*
G01X22750D01*
G54D21*
X34229Y100473D02*
G01X34639Y100683D01*
X35049Y101093*
X35249Y101493*
Y102313*
X35049Y102723*
X34639Y103133*
X34229Y103343*
X33609Y103543*
X32589*
X31979Y103343*
X31569Y103133*
X31159Y102723*
X30959Y102313*
Y101493*
X31159Y101093*
X31569Y100683*
X31979Y100473*
X34429Y99123D02*
G01X34639Y98713D01*
X35249Y98103*
X30959*
X7457Y100867D02*
G01X7867Y101077D01*
X8277Y101487*
X8477Y101887*
Y102707*
X8277Y103117*
X7867Y103527*
X7457Y103737*
X6837Y103937*
X5817*
X5207Y103737*
X4797Y103527*
X4387Y103117*
X4187Y102707*
Y101887*
X4387Y101487*
X4797Y101077*
X5207Y100867*
X7457Y99317D02*
G01X7657D01*
X8067Y99107*
X8277Y98907*
X8477Y98497*
Y97677*
X8277Y97267*
X8067Y97067*
X7657Y96857*
X7247*
X6837Y97067*
X6227Y97477*
X4187Y99517*
Y96657*
X33835Y330001D02*
G01X34245Y330211D01*
X34655Y330621*
X34855Y331021*
Y331841*
X34655Y332251*
X34245Y332661*
X33835Y332871*
X33215Y333071*
X32195*
X31585Y332871*
X31175Y332661*
X30765Y332251*
X30565Y331841*
Y331021*
X30765Y330621*
X31175Y330211*
X31585Y330001*
X34855Y328241D02*
G01Y325991D01*
X33215Y327221*
Y326611*
X33015Y326201*
X32815Y325991*
X32195Y325791*
X31785*
X31175Y325991*
X30765Y326401*
X30565Y327021*
Y327631*
X30765Y328241*
X30965Y328451*
X31375Y328651*
X7457Y330001D02*
G01X7867Y330211D01*
X8277Y330621*
X8477Y331021*
Y331841*
X8277Y332251*
X7867Y332661*
X7457Y332871*
X6837Y333071*
X5817*
X5207Y332871*
X4797Y332661*
X4387Y332251*
X4187Y331841*
Y331021*
X4387Y330621*
X4797Y330211*
X5207Y330001*
X8477Y326611D02*
G01X5617Y328651D01*
Y325581*
X8477Y326611D02*
G01X4187D01*
X34229Y571340D02*
G01X34639Y571550D01*
X35049Y571960*
X35249Y572360*
Y573180*
X35049Y573590*
X34639Y574000*
X34229Y574210*
X33609Y574410*
X32589*
X31979Y574210*
X31569Y574000*
X31159Y573590*
X30959Y573180*
Y572360*
X31159Y571960*
X31569Y571550*
X31979Y571340*
X35249Y567540D02*
G01Y569580D01*
X33409Y569790*
X33609Y569580*
X33819Y568970*
Y568360*
X33609Y567740*
X33209Y567330*
X32589Y567130*
X32179*
X31569Y567330*
X31159Y567740*
X30959Y568360*
Y568970*
X31159Y569580*
X31359Y569790*
X31769Y569990*
X7457Y571340D02*
G01X7867Y571550D01*
X8277Y571960*
X8477Y572360*
Y573180*
X8277Y573590*
X7867Y574000*
X7457Y574210*
X6837Y574410*
X5817*
X5207Y574210*
X4797Y574000*
X4387Y573590*
X4187Y573180*
Y572360*
X4387Y571960*
X4797Y571550*
X5207Y571340*
X7867Y567540D02*
G01X8277Y567740D01*
X8477Y568360*
Y568760*
X8277Y569380*
X7657Y569790*
X6637Y569990*
X5617*
X4797Y569790*
X4387Y569380*
X4187Y568760*
Y568560*
X4387Y567950*
X4797Y567540*
X5407Y567330*
X5617*
X6227Y567540*
X6637Y567950*
X6837Y568560*
Y568760*
X6637Y569380*
X6227Y569790*
X5617Y569990*
G54D19*
X29098Y117121D02*
G75*
G03X29098Y117121I-790D01*
X29374Y346844D02*
G03X29374Y346844I-790D01*
X29295Y587590D02*
G03X29295Y587590I-790D01*
G54D18*
X11008Y586425D02*
G01Y585330D01*
Y564502D02*
G01Y563291D01*
X28282Y586425D02*
G01Y585330D01*
Y564502D02*
G01Y563291D01*
X11008Y586425D02*
G01X14809D01*
X24760D02*
G01X28282D01*
X11008Y563291D02*
G01X14809D01*
X24760D02*
G01X28282D01*
X11008Y345678D02*
G01Y344584D01*
Y323755D02*
G01Y322544D01*
X28282Y345678D02*
G01Y344584D01*
Y323755D02*
G01Y322544D01*
X11008Y345678D02*
G01X14809D01*
X24760D02*
G01X28282D01*
X11008Y322544D02*
G01X14809D01*
X24760D02*
G01X28282D01*
X11008Y115955D02*
G01Y114861D01*
Y94032D02*
G01Y92821D01*
X28282Y115955D02*
G01Y114861D01*
Y94032D02*
G01Y92821D01*
X11008Y115955D02*
G01X14809D01*
X24760D02*
G01X28282D01*
X11008Y92821D02*
G01X14809D01*
X24760D02*
G01X28282D01*
M02*
