G04 CAM350 V9.5.1 (Build 211) Date:  Wed Jul 14 18:57:04 2021 *
G04 Database: C:\Users\Administrator\Desktop\220465AS2.cam *
G04 Layer 3: GTS *
%FSLAX25Y25*%
%MOIN*%
%SFA1.000B1.000*%

%MIA0B0*%
%IPPOS*%
%ADD22C,0.00004*%
%LNGTS*%
%LPD*%
G54D22*
X4724Y580352D02*
G01X7874D01*
X7910Y580356*
X7943Y580368*
X7973Y580387*
X7999Y580412*
X8018Y580442*
X8029Y580476*
X8034Y580511*
Y582481*
X8030Y582517*
X8018Y582550*
X7999Y582581*
X7974Y582606*
X7943Y582625*
X7910Y582637*
X7874Y582641*
X4724*
X4689Y582637*
X4655Y582625*
X4625Y582606*
X4600Y582581*
X4581Y582551*
X4569Y582517*
X4565Y582481*
Y580511*
X4569Y580476*
X4580Y580442*
X4599Y580412*
X4625Y580387*
X4655Y580368*
X4688Y580356*
X4724Y580352*
Y576415D02*
G01X7874D01*
X7910Y576419*
X7943Y576431*
X7973Y576450*
X7999Y576475*
X8018Y576505*
X8029Y576539*
X8034Y576574*
Y578544*
X8030Y578580*
X8018Y578613*
X7999Y578644*
X7974Y578669*
X7943Y578688*
X7910Y578700*
X7874Y578704*
X4724*
X4689Y578700*
X4655Y578688*
X4625Y578669*
X4600Y578644*
X4581Y578614*
X4569Y578580*
X4565Y578544*
Y576574*
X4569Y576539*
X4580Y576505*
X4599Y576475*
X4625Y576450*
X4655Y576431*
X4688Y576419*
X4724Y576415*
X5118Y339407D02*
G01X8268D01*
X8303Y339411*
X8337Y339423*
X8367Y339442*
X8392Y339467*
X8411Y339497*
X8423Y339531*
X8427Y339566*
Y341536*
X8423Y341572*
X8412Y341605*
X8393Y341636*
X8367Y341661*
X8337Y341680*
X8304Y341692*
X8268Y341696*
X5118*
X5082Y341692*
X5049Y341680*
X5019Y341661*
X4993Y341636*
X4974Y341606*
X4962Y341572*
X4958Y341536*
Y339566*
X4962Y339531*
X4974Y339497*
X4993Y339467*
X5018Y339442*
X5048Y339423*
X5082Y339411*
X5118Y339407*
Y335470D02*
G01X8268D01*
X8303Y335474*
X8337Y335486*
X8367Y335505*
X8392Y335530*
X8411Y335560*
X8423Y335594*
X8427Y335629*
Y337599*
X8423Y337635*
X8412Y337668*
X8393Y337699*
X8367Y337724*
X8337Y337743*
X8304Y337755*
X8268Y337759*
X5118*
X5082Y337755*
X5049Y337743*
X5019Y337724*
X4993Y337699*
X4974Y337669*
X4962Y337635*
X4958Y337599*
Y335629*
X4962Y335594*
X4974Y335560*
X4993Y335530*
X5018Y335505*
X5048Y335486*
X5082Y335474*
X5118Y335470*
X4724Y109486D02*
G01X7874D01*
X7910Y109490*
X7943Y109501*
X7973Y109520*
X7999Y109545*
X8018Y109576*
X8029Y109609*
X8034Y109645*
Y111615*
X8030Y111650*
X8018Y111684*
X7999Y111714*
X7974Y111740*
X7943Y111759*
X7910Y111770*
X7874Y111774*
X4724*
X4689Y111770*
X4655Y111759*
X4625Y111740*
X4600Y111715*
X4581Y111684*
X4569Y111651*
X4565Y111615*
Y109645*
X4569Y109610*
X4580Y109576*
X4599Y109546*
X4625Y109520*
X4655Y109501*
X4688Y109490*
X4724Y109486*
X11142Y583009D02*
G01X15078D01*
X15114Y583013*
X15148Y583024*
X15178Y583043*
X15203Y583068*
X15222Y583099*
X15234Y583132*
X15238Y583168*
Y584152*
X15234Y584188*
X15222Y584221*
X15203Y584252*
X15178Y584277*
X15148Y584296*
X15114Y584308*
X15079Y584312*
X11142*
X11106Y584308*
X11072Y584296*
X11042Y584277*
X11017Y584252*
X10998Y584222*
X10986Y584188*
X10982Y584152*
Y583168*
X10986Y583133*
X10998Y583099*
X11017Y583069*
X11042Y583044*
X11072Y583025*
X11106Y583013*
X11142Y583009*
Y581039D02*
G01X15078Y581038D01*
X15114Y581042*
X15148Y581054*
X15178Y581073*
X15203Y581098*
X15222Y581129*
X15234Y581162*
X15238Y581198*
Y582182*
X15234Y582218*
X15222Y582251*
X15203Y582281*
X15178Y582307*
X15148Y582326*
X15114Y582338*
X15079Y582342*
X11142*
X11106Y582338*
X11072Y582326*
X11042Y582307*
X11017Y582282*
X10998Y582252*
X10986Y582218*
X10982Y582182*
Y581198*
X10986Y581163*
X10998Y581129*
X11017Y581099*
X11042Y581073*
X11072Y581054*
X11106Y581043*
X11142Y581039*
Y579069D02*
G01X15078D01*
X15114Y579073*
X15148Y579084*
X15178Y579103*
X15203Y579128*
X15222Y579159*
X15234Y579192*
X15238Y579228*
Y580212*
X15234Y580248*
X15222Y580281*
X15203Y580312*
X15178Y580337*
X15148Y580356*
X15114Y580368*
X15079Y580372*
X11142*
X11106Y580368*
X11072Y580356*
X11042Y580337*
X11017Y580312*
X10998Y580282*
X10986Y580248*
X10982Y580212*
Y579228*
X10986Y579193*
X10998Y579159*
X11017Y579129*
X11042Y579104*
X11072Y579085*
X11106Y579073*
X11142Y579069*
Y577099D02*
G01X15078Y577098D01*
X15114Y577102*
X15148Y577114*
X15178Y577133*
X15203Y577158*
X15222Y577189*
X15234Y577222*
X15238Y577258*
Y578242*
X15234Y578278*
X15222Y578311*
X15203Y578341*
X15178Y578367*
X15148Y578386*
X15114Y578398*
X15079Y578402*
X11142*
X11106Y578398*
X11072Y578386*
X11042Y578367*
X11017Y578342*
X10998Y578312*
X10986Y578278*
X10982Y578242*
Y577258*
X10986Y577223*
X10998Y577189*
X11017Y577159*
X11042Y577133*
X11072Y577114*
X11106Y577103*
X11142Y577099*
Y575134D02*
G01X15078Y575133D01*
X15114Y575137*
X15148Y575149*
X15178Y575168*
X15203Y575193*
X15222Y575224*
X15234Y575257*
X15238Y575293*
Y576277*
X15234Y576313*
X15222Y576346*
X15203Y576377*
X15178Y576402*
X15148Y576421*
X15114Y576433*
X15079Y576437*
X11142*
X11106Y576433*
X11072Y576421*
X11042Y576402*
X11017Y576377*
X10998Y576347*
X10986Y576313*
X10982Y576277*
Y575293*
X10986Y575258*
X10998Y575224*
X11017Y575194*
X11042Y575168*
X11072Y575149*
X11106Y575138*
X11142Y575134*
Y573164D02*
G01X15078Y573163D01*
X15114Y573167*
X15148Y573179*
X15178Y573198*
X15203Y573223*
X15222Y573254*
X15234Y573287*
X15238Y573323*
Y574307*
X15234Y574343*
X15222Y574376*
X15203Y574406*
X15178Y574432*
X15148Y574451*
X15114Y574463*
X15079Y574467*
X11142*
X11106Y574463*
X11072Y574451*
X11042Y574432*
X11017Y574407*
X10998Y574377*
X10986Y574343*
X10982Y574307*
Y573323*
X10986Y573288*
X10998Y573254*
X11017Y573224*
X11042Y573198*
X11072Y573179*
X11106Y573168*
X11142Y573164*
Y571194D02*
G01X15078D01*
X15114Y571198*
X15148Y571209*
X15178Y571228*
X15203Y571253*
X15222Y571284*
X15234Y571317*
X15238Y571353*
Y572337*
X15234Y572373*
X15222Y572406*
X15203Y572437*
X15178Y572462*
X15148Y572481*
X15114Y572493*
X15079Y572497*
X11142*
X11106Y572493*
X11072Y572481*
X11042Y572462*
X11017Y572437*
X10998Y572407*
X10986Y572373*
X10982Y572337*
Y571353*
X10986Y571318*
X10998Y571284*
X11017Y571254*
X11042Y571229*
X11072Y571210*
X11106Y571198*
X11142Y571194*
Y569229D02*
G01X15078Y569228D01*
X15114Y569232*
X15148Y569244*
X15178Y569263*
X15203Y569288*
X15222Y569319*
X15234Y569352*
X15238Y569388*
Y570372*
X15234Y570408*
X15222Y570441*
X15203Y570472*
X15178Y570497*
X15148Y570516*
X15114Y570528*
X15079Y570532*
X11142*
X11106Y570528*
X11072Y570516*
X11042Y570497*
X11017Y570472*
X10998Y570442*
X10986Y570408*
X10982Y570372*
Y569388*
X10986Y569353*
X10998Y569319*
X11017Y569289*
X11042Y569263*
X11072Y569244*
X11106Y569233*
X11142Y569229*
Y567259D02*
G01X15078Y567258D01*
X15114Y567262*
X15148Y567274*
X15178Y567293*
X15203Y567318*
X15222Y567349*
X15234Y567382*
X15238Y567418*
Y568402*
X15234Y568438*
X15222Y568471*
X15203Y568502*
X15178Y568527*
X15148Y568546*
X15114Y568558*
X15079Y568562*
X11142*
X11106Y568558*
X11072Y568546*
X11042Y568527*
X11017Y568502*
X10998Y568472*
X10986Y568438*
X10982Y568402*
Y567418*
X10986Y567383*
X10998Y567349*
X11017Y567319*
X11042Y567293*
X11072Y567274*
X11106Y567263*
X11142Y567259*
Y565289D02*
G01X15078Y565288D01*
X15114Y565292*
X15148Y565304*
X15178Y565323*
X15203Y565348*
X15222Y565379*
X15234Y565412*
X15238Y565448*
Y566432*
X15234Y566468*
X15222Y566501*
X15203Y566531*
X15178Y566557*
X15148Y566576*
X15114Y566588*
X15079Y566592*
X11142*
X11106Y566588*
X11072Y566576*
X11042Y566557*
X11017Y566532*
X10998Y566502*
X10986Y566468*
X10982Y566432*
Y565448*
X10986Y565413*
X10998Y565379*
X11017Y565349*
X11042Y565323*
X11072Y565304*
X11106Y565293*
X11142Y565289*
X11220Y342262D02*
G01X15157D01*
X15193Y342266*
X15226Y342278*
X15257Y342297*
X15282Y342322*
X15301Y342352*
X15313Y342386*
X15317Y342422*
Y343406*
X15313Y343441*
X15301Y343475*
X15282Y343505*
X15257Y343530*
X15227Y343549*
X15193Y343561*
X15157Y343565*
X11220*
X11185Y343561*
X11151Y343549*
X11121Y343530*
X11096Y343505*
X11077Y343475*
X11065Y343441*
X11061Y343406*
Y342422*
X11065Y342386*
X11077Y342353*
X11096Y342322*
X11121Y342297*
X11151Y342278*
X11185Y342266*
X11220Y342262*
Y340292D02*
G01X15157D01*
X15193Y340296*
X15226Y340308*
X15257Y340327*
X15282Y340352*
X15301Y340382*
X15313Y340416*
X15317Y340451*
Y341436*
X15313Y341471*
X15301Y341505*
X15282Y341535*
X15257Y341560*
X15227Y341579*
X15193Y341591*
X15157Y341595*
X11220*
X11185Y341591*
X11151Y341579*
X11121Y341560*
X11096Y341535*
X11077Y341505*
X11065Y341471*
X11061Y341436*
Y340452*
X11065Y340416*
X11077Y340382*
X11096Y340352*
X11121Y340327*
X11151Y340308*
X11185Y340296*
X11220Y340292*
Y338322D02*
G01X15157D01*
X15193Y338326*
X15226Y338338*
X15257Y338357*
X15282Y338382*
X15301Y338412*
X15313Y338446*
X15317Y338481*
Y339466*
X15313Y339501*
X15301Y339535*
X15282Y339565*
X15257Y339590*
X15227Y339609*
X15193Y339621*
X15157Y339625*
X11220*
X11185Y339621*
X11151Y339610*
X11121Y339591*
X11096Y339565*
X11077Y339535*
X11065Y339502*
X11061Y339466*
Y338481*
X11065Y338446*
X11077Y338412*
X11096Y338382*
X11121Y338357*
X11151Y338338*
X11185Y338326*
X11220Y338322*
Y336352D02*
G01X15157D01*
X15193Y336356*
X15226Y336368*
X15257Y336387*
X15282Y336412*
X15301Y336442*
X15313Y336476*
X15317Y336511*
Y337496*
X15313Y337531*
X15301Y337565*
X15282Y337595*
X15257Y337620*
X15227Y337639*
X15193Y337651*
X15157Y337655*
X11220*
X11185Y337651*
X11151Y337639*
X11121Y337620*
X11096Y337595*
X11077Y337565*
X11065Y337531*
X11061Y337496*
Y336512*
X11065Y336476*
X11077Y336442*
X11096Y336412*
X11121Y336387*
X11151Y336368*
X11185Y336356*
X11220Y336352*
Y334387D02*
G01X15157D01*
X15193Y334391*
X15226Y334403*
X15257Y334422*
X15282Y334447*
X15301Y334477*
X15313Y334511*
X15317Y334546*
Y335531*
X15313Y335566*
X15301Y335600*
X15282Y335630*
X15257Y335655*
X15227Y335674*
X15193Y335686*
X15157Y335690*
X11220*
X11185Y335686*
X11151Y335674*
X11121Y335655*
X11096Y335630*
X11077Y335600*
X11065Y335566*
X11061Y335531*
Y334546*
X11065Y334511*
X11077Y334477*
X11096Y334447*
X11121Y334422*
X11151Y334403*
X11185Y334391*
X11220Y334387*
Y332417D02*
G01X15157D01*
X15193Y332421*
X15226Y332433*
X15257Y332452*
X15282Y332477*
X15301Y332507*
X15313Y332541*
X15317Y332576*
Y333561*
X15313Y333596*
X15301Y333630*
X15282Y333660*
X15257Y333685*
X15227Y333704*
X15193Y333716*
X15157Y333720*
X11220*
X11185Y333716*
X11151Y333704*
X11121Y333685*
X11096Y333660*
X11077Y333630*
X11065Y333596*
X11061Y333561*
Y332577*
X11065Y332541*
X11077Y332507*
X11096Y332477*
X11121Y332452*
X11151Y332433*
X11185Y332421*
X11220Y332417*
Y330447D02*
G01X15157D01*
X15193Y330451*
X15226Y330463*
X15257Y330482*
X15282Y330507*
X15301Y330537*
X15313Y330571*
X15317Y330606*
Y331591*
X15313Y331626*
X15301Y331660*
X15282Y331690*
X15257Y331715*
X15227Y331734*
X15193Y331746*
X15157Y331750*
X11220*
X11185Y331746*
X11151Y331735*
X11121Y331716*
X11096Y331690*
X11077Y331660*
X11065Y331627*
X11061Y331591*
Y330606*
X11065Y330571*
X11077Y330537*
X11096Y330507*
X11121Y330482*
X11151Y330463*
X11185Y330451*
X11220Y330447*
Y328482D02*
G01X15157D01*
X15193Y328486*
X15226Y328498*
X15257Y328517*
X15282Y328542*
X15301Y328572*
X15313Y328606*
X15317Y328641*
Y329626*
X15313Y329661*
X15301Y329695*
X15282Y329725*
X15257Y329750*
X15227Y329769*
X15193Y329781*
X15157Y329785*
X11220*
X11185Y329781*
X11151Y329769*
X11121Y329750*
X11096Y329725*
X11077Y329695*
X11065Y329661*
X11061Y329626*
Y328642*
X11065Y328606*
X11077Y328572*
X11096Y328542*
X11121Y328517*
X11151Y328498*
X11185Y328486*
X11220Y328482*
Y326512D02*
G01X15157D01*
X15193Y326516*
X15226Y326528*
X15257Y326547*
X15282Y326572*
X15301Y326602*
X15313Y326636*
X15317Y326671*
Y327656*
X15313Y327691*
X15301Y327725*
X15282Y327755*
X15257Y327780*
X15227Y327799*
X15193Y327811*
X15157Y327815*
X11220*
X11185Y327811*
X11151Y327799*
X11121Y327780*
X11096Y327755*
X11077Y327725*
X11065Y327691*
X11061Y327656*
Y326671*
X11065Y326636*
X11077Y326602*
X11096Y326572*
X11121Y326547*
X11151Y326528*
X11185Y326516*
X11220Y326512*
Y324542D02*
G01X15157D01*
X15193Y324546*
X15226Y324558*
X15257Y324577*
X15282Y324602*
X15301Y324632*
X15313Y324666*
X15317Y324701*
Y325686*
X15313Y325721*
X15301Y325755*
X15282Y325785*
X15257Y325810*
X15227Y325829*
X15193Y325841*
X15157Y325845*
X11220*
X11185Y325841*
X11151Y325829*
X11121Y325810*
X11096Y325785*
X11077Y325755*
X11065Y325721*
X11061Y325686*
Y324702*
X11065Y324666*
X11077Y324632*
X11096Y324602*
X11121Y324577*
X11151Y324558*
X11185Y324546*
X11220Y324542*
X11211Y120119D02*
G01X15151D01*
X15186Y120123*
X15220Y120134*
X15250Y120153*
X15276Y120178*
X15295Y120209*
X15306Y120242*
X15310Y120278*
Y128148*
X15306Y128183*
X15295Y128217*
X15276Y128247*
X15251Y128273*
X15220Y128292*
X15187Y128303*
X15151Y128307*
X11211*
X11176Y128303*
X11142Y128292*
X11112Y128273*
X11086Y128248*
X11067Y128217*
X11056Y128184*
X11052Y128148*
Y120278*
X11056Y120243*
X11067Y120209*
X11086Y120179*
X11111Y120153*
X11142Y120134*
X11175Y120123*
X11211Y120119*
X10945Y112539D02*
G01X14882D01*
X14917Y112543*
X14951Y112555*
X14981Y112574*
X15006Y112599*
X15025Y112629*
X15037Y112663*
X15041Y112699*
Y113683*
X15037Y113718*
X15025Y113752*
X15006Y113782*
X14981Y113807*
X14951Y113826*
X14917Y113838*
X14882Y113842*
X10945*
X10909Y113838*
X10875Y113826*
X10845Y113807*
X10820Y113782*
X10801Y113752*
X10789Y113718*
X10785Y113683*
Y112699*
X10789Y112663*
X10801Y112630*
X10820Y112599*
X10845Y112574*
X10875Y112555*
X10909Y112543*
X10945Y112539*
Y110569D02*
G01X14882D01*
X14917Y110573*
X14951Y110585*
X14981Y110604*
X15006Y110629*
X15025Y110659*
X15037Y110693*
X15041Y110728*
Y111713*
X15037Y111748*
X15025Y111782*
X15006Y111812*
X14981Y111837*
X14951Y111856*
X14917Y111868*
X14882Y111872*
X10945*
X10909Y111868*
X10875Y111856*
X10845Y111837*
X10820Y111812*
X10801Y111782*
X10789Y111748*
X10785Y111713*
Y110729*
X10789Y110693*
X10801Y110659*
X10820Y110629*
X10845Y110604*
X10875Y110585*
X10909Y110573*
X10945Y110569*
Y108599D02*
G01X14882D01*
X14917Y108603*
X14951Y108615*
X14981Y108634*
X15006Y108659*
X15025Y108689*
X15037Y108723*
X15041Y108758*
Y109743*
X15037Y109778*
X15025Y109812*
X15006Y109842*
X14981Y109867*
X14951Y109886*
X14917Y109898*
X14882Y109902*
X10945*
X10909Y109898*
X10875Y109887*
X10845Y109868*
X10820Y109842*
X10801Y109812*
X10789Y109779*
X10785Y109743*
Y108758*
X10789Y108723*
X10801Y108689*
X10820Y108659*
X10845Y108634*
X10875Y108615*
X10909Y108603*
X10945Y108599*
Y106629D02*
G01X14882D01*
X14917Y106633*
X14951Y106645*
X14981Y106664*
X15006Y106689*
X15025Y106719*
X15037Y106753*
X15041Y106788*
Y107773*
X15037Y107808*
X15025Y107842*
X15006Y107872*
X14981Y107897*
X14951Y107916*
X14917Y107928*
X14882Y107932*
X10945*
X10909Y107928*
X10875Y107916*
X10845Y107897*
X10820Y107872*
X10801Y107842*
X10789Y107808*
X10785Y107773*
Y106789*
X10789Y106753*
X10801Y106719*
X10820Y106689*
X10845Y106664*
X10875Y106645*
X10909Y106633*
X10945Y106629*
Y104664D02*
G01X14882D01*
X14917Y104668*
X14951Y104680*
X14981Y104699*
X15006Y104724*
X15025Y104754*
X15037Y104788*
X15041Y104823*
Y105808*
X15037Y105843*
X15025Y105877*
X15006Y105907*
X14981Y105932*
X14951Y105951*
X14917Y105963*
X14882Y105967*
X10945*
X10909Y105963*
X10875Y105951*
X10845Y105932*
X10820Y105907*
X10801Y105877*
X10789Y105843*
X10785Y105808*
Y104823*
X10789Y104788*
X10801Y104754*
X10820Y104724*
X10845Y104699*
X10875Y104680*
X10909Y104668*
X10945Y104664*
Y102694D02*
G01X14882D01*
X14917Y102698*
X14951Y102710*
X14981Y102729*
X15006Y102754*
X15025Y102784*
X15037Y102818*
X15041Y102853*
Y103838*
X15037Y103873*
X15025Y103907*
X15006Y103937*
X14981Y103962*
X14951Y103981*
X14917Y103993*
X14882Y103997*
X10945*
X10909Y103993*
X10875Y103981*
X10845Y103962*
X10820Y103937*
X10801Y103907*
X10789Y103873*
X10785Y103838*
Y102854*
X10789Y102818*
X10801Y102784*
X10820Y102754*
X10845Y102729*
X10875Y102710*
X10909Y102698*
X10945Y102694*
Y100724D02*
G01X14882D01*
X14917Y100728*
X14951Y100740*
X14981Y100759*
X15006Y100784*
X15025Y100814*
X15037Y100848*
X15041Y100883*
Y101868*
X15037Y101903*
X15025Y101937*
X15006Y101967*
X14981Y101992*
X14951Y102011*
X14917Y102023*
X14882Y102027*
X10945*
X10909Y102023*
X10875Y102012*
X10845Y101993*
X10820Y101967*
X10801Y101937*
X10789Y101904*
X10785Y101868*
Y100883*
X10789Y100848*
X10801Y100814*
X10820Y100784*
X10845Y100759*
X10875Y100740*
X10909Y100728*
X10945Y100724*
Y98759D02*
G01X14882D01*
X14917Y98763*
X14951Y98775*
X14981Y98794*
X15006Y98819*
X15025Y98849*
X15037Y98883*
X15041Y98918*
Y99903*
X15037Y99938*
X15025Y99972*
X15006Y100002*
X14981Y100027*
X14951Y100046*
X14917Y100058*
X14882Y100062*
X10945*
X10909Y100058*
X10875Y100046*
X10845Y100027*
X10820Y100002*
X10801Y99972*
X10789Y99938*
X10785Y99903*
Y98919*
X10789Y98883*
X10801Y98849*
X10820Y98819*
X10845Y98794*
X10875Y98775*
X10909Y98763*
X10945Y98759*
Y96789D02*
G01X14882D01*
X14917Y96793*
X14951Y96805*
X14981Y96824*
X15006Y96849*
X15025Y96879*
X15037Y96913*
X15041Y96948*
Y97933*
X15037Y97968*
X15025Y98002*
X15006Y98032*
X14981Y98057*
X14951Y98076*
X14917Y98088*
X14882Y98092*
X10945*
X10909Y98088*
X10875Y98076*
X10845Y98057*
X10820Y98032*
X10801Y98002*
X10789Y97968*
X10785Y97933*
Y96948*
X10789Y96913*
X10801Y96879*
X10820Y96849*
X10845Y96824*
X10875Y96805*
X10909Y96793*
X10945Y96789*
Y94819D02*
G01X14882D01*
X14917Y94823*
X14951Y94835*
X14981Y94854*
X15006Y94879*
X15025Y94909*
X15037Y94943*
X15041Y94978*
Y95963*
X15037Y95998*
X15025Y96032*
X15006Y96062*
X14981Y96087*
X14951Y96106*
X14917Y96118*
X14882Y96122*
X10945*
X10909Y96118*
X10875Y96106*
X10845Y96087*
X10820Y96062*
X10801Y96032*
X10789Y95998*
X10785Y95963*
Y94979*
X10789Y94943*
X10801Y94909*
X10820Y94879*
X10845Y94854*
X10875Y94835*
X10909Y94823*
X10945Y94819*
X16201Y582001D02*
G01X17185D01*
X17221Y582005*
X17254Y582017*
X17285Y582036*
X17310Y582061*
X17329Y582091*
X17341Y582125*
X17345Y582161*
Y586098*
X17341Y586133*
X17329Y586167*
X17310Y586197*
X17285Y586222*
X17255Y586241*
X17221Y586253*
X17185Y586257*
X16201*
X16165Y586253*
X16132Y586241*
X16102Y586222*
X16076Y586197*
X16057Y586167*
X16045Y586133*
X16041Y586098*
Y582161*
X16045Y582125*
X16057Y582092*
X16076Y582061*
X16101Y582036*
X16131Y582017*
X16165Y582005*
X16201Y582001*
Y563341D02*
G01X17185D01*
X17221Y563345*
X17254Y563357*
X17285Y563376*
X17310Y563401*
X17329Y563431*
X17341Y563465*
X17345Y563501*
Y567438*
X17341Y567473*
X17329Y567507*
X17310Y567537*
X17285Y567562*
X17255Y567581*
X17221Y567593*
X17185Y567597*
X16201*
X16165Y567593*
X16132Y567581*
X16102Y567562*
X16076Y567537*
X16057Y567507*
X16045Y567473*
X16041Y567438*
Y563501*
X16045Y563465*
X16057Y563432*
X16076Y563401*
X16101Y563376*
X16131Y563357*
X16165Y563345*
X16201Y563341*
X16280Y341255D02*
G01X17264D01*
X17299Y341259*
X17333Y341270*
X17363Y341289*
X17389Y341315*
X17408Y341345*
X17419Y341378*
X17423Y341414*
X17424Y345351*
X17420Y345387*
X17408Y345420*
X17389Y345450*
X17364Y345476*
X17333Y345495*
X17300Y345507*
X17264Y345511*
X16280*
X16244Y345507*
X16211Y345495*
X16180Y345476*
X16155Y345451*
X16136Y345421*
X16124Y345387*
X16120Y345351*
Y341414*
X16124Y341379*
X16136Y341345*
X16155Y341315*
X16180Y341290*
X16210Y341271*
X16244Y341259*
X16280Y341255*
Y322595D02*
G01X17264D01*
X17299Y322599*
X17333Y322610*
X17363Y322629*
X17389Y322655*
X17408Y322685*
X17419Y322718*
X17423Y322754*
X17424Y326691*
X17420Y326726*
X17408Y326760*
X17389Y326790*
X17364Y326816*
X17333Y326835*
X17300Y326846*
X17264Y326850*
X16280*
X16244Y326846*
X16211Y326835*
X16180Y326816*
X16155Y326791*
X16136Y326760*
X16124Y326727*
X16120Y326691*
Y322754*
X16124Y322719*
X16136Y322685*
X16155Y322655*
X16180Y322630*
X16210Y322611*
X16244Y322599*
X16280Y322595*
X16004Y111532D02*
G01X16988D01*
X17024Y111536*
X17057Y111547*
X17088Y111566*
X17113Y111592*
X17132Y111622*
X17144Y111655*
X17148Y111691*
Y115628*
X17144Y115664*
X17132Y115697*
X17113Y115727*
X17088Y115753*
X17058Y115772*
X17024Y115784*
X16988Y115788*
X16004*
X15969Y115784*
X15935Y115772*
X15905Y115753*
X15880Y115728*
X15861Y115698*
X15849Y115664*
X15845Y115628*
Y111691*
X15849Y111656*
X15860Y111622*
X15879Y111592*
X15905Y111567*
X15935Y111548*
X15968Y111536*
X16004Y111532*
Y92872D02*
G01X16988D01*
X17024Y92876*
X17057Y92887*
X17088Y92906*
X17113Y92932*
X17132Y92962*
X17144Y92995*
X17148Y93031*
Y96968*
X17144Y97004*
X17132Y97037*
X17113Y97067*
X17088Y97093*
X17058Y97112*
X17024Y97124*
X16988Y97128*
X16004*
X15969Y97124*
X15935Y97112*
X15905Y97093*
X15880Y97068*
X15861Y97038*
X15849Y97004*
X15845Y96968*
Y93031*
X15849Y92996*
X15860Y92962*
X15879Y92932*
X15905Y92907*
X15935Y92888*
X15968Y92876*
X16004Y92872*
X18168Y582001D02*
G01X19152D01*
X19188Y582005*
X19221Y582017*
X19252Y582036*
X19277Y582061*
X19296Y582091*
X19308Y582125*
X19312Y582161*
Y586098*
X19308Y586133*
X19296Y586167*
X19277Y586197*
X19252Y586222*
X19222Y586241*
X19188Y586253*
X19152Y586257*
X18168*
X18132Y586253*
X18099Y586241*
X18069Y586222*
X18043Y586197*
X18024Y586167*
X18012Y586133*
X18008Y586098*
Y582161*
X18012Y582125*
X18024Y582092*
X18043Y582061*
X18068Y582036*
X18098Y582017*
X18132Y582005*
X18168Y582001*
X18167Y563341D02*
G01X19151D01*
X19187Y563345*
X19220Y563357*
X19250Y563376*
X19276Y563401*
X19295Y563431*
X19306Y563465*
X19311Y563501*
Y567438*
X19307Y567473*
X19295Y567507*
X19276Y567537*
X19251Y567562*
X19221Y567581*
X19187Y567593*
X19151Y567597*
X18167*
X18131Y567593*
X18098Y567581*
X18068Y567562*
X18042Y567537*
X18023Y567507*
X18011Y567473*
X18007Y567438*
Y563501*
X18011Y563465*
X18023Y563432*
X18042Y563401*
X18067Y563376*
X18097Y563357*
X18131Y563345*
X18167Y563341*
X18247Y341255D02*
G01X19231D01*
X19267Y341259*
X19300Y341270*
X19330Y341289*
X19356Y341315*
X19375Y341345*
X19386Y341378*
X19391Y341414*
Y345351*
X19387Y345387*
X19375Y345420*
X19356Y345450*
X19331Y345476*
X19301Y345495*
X19267Y345507*
X19231Y345511*
X18247*
X18211Y345507*
X18178Y345495*
X18148Y345476*
X18122Y345451*
X18103Y345421*
X18091Y345387*
X18087Y345351*
Y341414*
X18091Y341379*
X18103Y341345*
X18122Y341315*
X18147Y341290*
X18177Y341271*
X18211Y341259*
X18247Y341255*
X18246Y322595D02*
G01X19230D01*
X19265Y322599*
X19299Y322610*
X19329Y322629*
X19355Y322655*
X19374Y322685*
X19385Y322718*
X19389Y322754*
X19390Y326691*
X19386Y326726*
X19374Y326760*
X19355Y326790*
X19330Y326816*
X19299Y326835*
X19266Y326846*
X19230Y326850*
X18246*
X18210Y326846*
X18177Y326835*
X18146Y326816*
X18121Y326791*
X18102Y326760*
X18090Y326727*
X18086Y326691*
Y322754*
X18090Y322719*
X18102Y322685*
X18121Y322655*
X18146Y322630*
X18176Y322611*
X18210Y322599*
X18246Y322595*
X20139Y582001D02*
G01X21123D01*
X21159Y582005*
X21192Y582017*
X21223Y582036*
X21248Y582061*
X21267Y582091*
X21279Y582125*
X21283Y582161*
Y586098*
X21279Y586133*
X21267Y586167*
X21248Y586197*
X21223Y586222*
X21193Y586241*
X21159Y586253*
X21123Y586257*
X20139*
X20104Y586253*
X20070Y586241*
X20040Y586222*
X20014Y586197*
X19995Y586167*
X19984Y586133*
X19980Y586098*
Y582161*
X19984Y582125*
X19995Y582092*
X20014Y582061*
X20039Y582036*
X20070Y582017*
X20103Y582005*
X20139Y582001*
X20137Y563341D02*
G01X21121D01*
X21157Y563345*
X21190Y563357*
X21221Y563376*
X21246Y563401*
X21265Y563431*
X21277Y563465*
X21281Y563501*
Y567438*
X21277Y567473*
X21265Y567507*
X21246Y567537*
X21221Y567562*
X21191Y567581*
X21157Y567593*
X21121Y567597*
X20137*
X20102Y567593*
X20068Y567581*
X20038Y567562*
X20012Y567537*
X19993Y567507*
X19982Y567473*
X19978Y567438*
Y563501*
X19982Y563465*
X19993Y563432*
X20012Y563401*
X20037Y563376*
X20068Y563357*
X20101Y563345*
X20137Y563341*
X20218Y341255D02*
G01X21202D01*
X21238Y341259*
X21271Y341270*
X21301Y341289*
X21327Y341315*
X21346Y341345*
X21357Y341378*
X21362Y341414*
Y345351*
X21358Y345387*
X21346Y345420*
X21327Y345450*
X21302Y345476*
X21272Y345495*
X21238Y345507*
X21202Y345511*
X20218*
X20182Y345507*
X20149Y345495*
X20119Y345476*
X20093Y345451*
X20074Y345421*
X20062Y345387*
X20058Y345351*
Y341414*
X20062Y341379*
X20074Y341345*
X20093Y341315*
X20118Y341290*
X20148Y341271*
X20182Y341259*
X20218Y341255*
X20216Y322595D02*
G01X21200D01*
X21236Y322599*
X21269Y322610*
X21299Y322629*
X21325Y322655*
X21344Y322685*
X21355Y322718*
X21360Y322754*
Y326691*
X21356Y326726*
X21344Y326760*
X21325Y326790*
X21300Y326816*
X21270Y326835*
X21236Y326846*
X21200Y326850*
X20216*
X20180Y326846*
X20147Y326835*
X20117Y326816*
X20091Y326791*
X20072Y326760*
X20060Y326727*
X20056Y326691*
Y322754*
X20060Y322719*
X20072Y322685*
X20091Y322655*
X20116Y322630*
X20146Y322611*
X20180Y322599*
X20216Y322595*
X17711Y120119D02*
G01X21651D01*
X21686Y120123*
X21720Y120134*
X21750Y120153*
X21776Y120178*
X21795Y120209*
X21806Y120242*
X21810Y120278*
Y128148*
X21806Y128183*
X21795Y128217*
X21776Y128247*
X21751Y128273*
X21720Y128292*
X21687Y128303*
X21651Y128307*
X17711*
X17676Y128303*
X17642Y128292*
X17612Y128273*
X17586Y128248*
X17567Y128217*
X17556Y128184*
X17552Y128148*
Y120278*
X17556Y120243*
X17567Y120209*
X17586Y120179*
X17611Y120153*
X17642Y120134*
X17675Y120123*
X17711Y120119*
X17971Y111532D02*
G01X18955D01*
X18991Y111536*
X19024Y111547*
X19055Y111566*
X19080Y111592*
X19099Y111622*
X19111Y111655*
X19115Y111691*
Y115628*
X19111Y115664*
X19099Y115697*
X19080Y115727*
X19055Y115753*
X19025Y115772*
X18991Y115784*
X18955Y115788*
X17971*
X17936Y115784*
X17902Y115772*
X17872Y115753*
X17847Y115728*
X17828Y115698*
X17816Y115664*
X17812Y115628*
Y111691*
X17816Y111656*
X17827Y111622*
X17846Y111592*
X17872Y111567*
X17902Y111548*
X17935Y111536*
X17971Y111532*
X17970Y92872D02*
G01X18954D01*
X18990Y92876*
X19023Y92887*
X19054Y92906*
X19079Y92932*
X19098Y92962*
X19110Y92995*
X19114Y93031*
Y96968*
X19110Y97004*
X19098Y97037*
X19079Y97067*
X19054Y97093*
X19024Y97112*
X18990Y97124*
X18954Y97128*
X17970*
X17935Y97124*
X17901Y97112*
X17871Y97093*
X17846Y97068*
X17827Y97038*
X17815Y97004*
X17811Y96968*
Y93031*
X17815Y92996*
X17826Y92962*
X17845Y92932*
X17871Y92907*
X17901Y92888*
X17934Y92876*
X17970Y92872*
X19942Y111532D02*
G01X20926D01*
X20962Y111536*
X20995Y111547*
X21026Y111566*
X21051Y111592*
X21070Y111622*
X21082Y111655*
X21086Y111691*
Y115628*
X21082Y115664*
X21070Y115697*
X21051Y115727*
X21026Y115753*
X20996Y115772*
X20962Y115784*
X20926Y115788*
X19942*
X19907Y115784*
X19873Y115772*
X19843Y115753*
X19818Y115728*
X19799Y115698*
X19787Y115664*
X19783Y115628*
Y111691*
X19787Y111656*
X19798Y111622*
X19817Y111592*
X19843Y111567*
X19873Y111548*
X19906Y111536*
X19942Y111532*
X19940Y92872D02*
G01X20924D01*
X20960Y92876*
X20993Y92887*
X21024Y92906*
X21049Y92932*
X21068Y92962*
X21080Y92995*
X21084Y93031*
Y96968*
X21080Y97004*
X21068Y97037*
X21049Y97067*
X21024Y97093*
X20994Y97112*
X20960Y97124*
X20924Y97128*
X19940*
X19905Y97124*
X19871Y97112*
X19841Y97093*
X19816Y97068*
X19797Y97038*
X19785Y97004*
X19781Y96968*
Y93031*
X19785Y92996*
X19796Y92962*
X19815Y92932*
X19841Y92907*
X19871Y92888*
X19904Y92876*
X19940Y92872*
X22105Y582001D02*
G01X23089D01*
X23125Y582005*
X23158Y582017*
X23189Y582036*
X23214Y582061*
X23233Y582091*
X23245Y582125*
X23249Y582161*
Y586098*
X23245Y586133*
X23233Y586167*
X23214Y586197*
X23189Y586222*
X23159Y586241*
X23125Y586253*
X23089Y586257*
X22105*
X22070Y586253*
X22036Y586241*
X22006Y586222*
X21980Y586197*
X21961Y586167*
X21950Y586133*
X21946Y586098*
Y582161*
X21950Y582125*
X21961Y582092*
X21980Y582061*
X22005Y582036*
X22036Y582017*
X22069Y582005*
X22105Y582001*
Y563341D02*
G01X23089D01*
X23125Y563345*
X23158Y563357*
X23189Y563376*
X23214Y563401*
X23233Y563431*
X23245Y563465*
X23249Y563501*
Y567438*
X23245Y567473*
X23233Y567507*
X23214Y567537*
X23189Y567562*
X23159Y567581*
X23125Y567593*
X23089Y567597*
X22105*
X22070Y567593*
X22036Y567581*
X22006Y567562*
X21980Y567537*
X21961Y567507*
X21950Y567473*
X21946Y567438*
Y563501*
X21950Y563465*
X21961Y563432*
X21980Y563401*
X22005Y563376*
X22036Y563357*
X22069Y563345*
X22105Y563341*
X22184Y341255D02*
G01X23168D01*
X23204Y341259*
X23237Y341270*
X23267Y341289*
X23293Y341315*
X23312Y341345*
X23323Y341378*
X23328Y341414*
Y345351*
X23324Y345387*
X23312Y345420*
X23293Y345450*
X23268Y345476*
X23238Y345495*
X23204Y345507*
X23168Y345511*
X22184*
X22148Y345507*
X22115Y345495*
X22084Y345476*
X22059Y345451*
X22040Y345421*
X22028Y345387*
X22024Y345351*
Y341414*
X22028Y341379*
X22040Y341345*
X22059Y341315*
X22084Y341290*
X22114Y341271*
X22148Y341259*
X22184Y341255*
Y322595D02*
G01X23168D01*
X23204Y322599*
X23237Y322610*
X23267Y322629*
X23293Y322655*
X23312Y322685*
X23323Y322718*
X23328Y322754*
Y326691*
X23324Y326726*
X23312Y326760*
X23293Y326790*
X23268Y326816*
X23238Y326835*
X23204Y326846*
X23168Y326850*
X22184*
X22148Y326846*
X22115Y326835*
X22084Y326816*
X22059Y326791*
X22040Y326760*
X22028Y326727*
X22024Y326691*
Y322754*
X22028Y322719*
X22040Y322685*
X22059Y322655*
X22084Y322630*
X22114Y322611*
X22148Y322599*
X22184Y322595*
X21908Y111532D02*
G01X22892D01*
X22928Y111536*
X22961Y111547*
X22992Y111566*
X23017Y111592*
X23036Y111622*
X23048Y111655*
X23052Y111691*
Y115628*
X23048Y115664*
X23036Y115697*
X23017Y115727*
X22992Y115753*
X22962Y115772*
X22928Y115784*
X22892Y115788*
X21908*
X21873Y115784*
X21839Y115772*
X21809Y115753*
X21784Y115728*
X21765Y115698*
X21753Y115664*
X21749Y115628*
Y111691*
X21753Y111656*
X21764Y111622*
X21783Y111592*
X21809Y111567*
X21839Y111548*
X21872Y111536*
X21908Y111532*
Y92872D02*
G01X22892D01*
X22928Y92876*
X22961Y92887*
X22992Y92906*
X23017Y92932*
X23036Y92962*
X23048Y92995*
X23052Y93031*
Y96968*
X23048Y97004*
X23036Y97037*
X23017Y97067*
X22992Y97093*
X22962Y97112*
X22928Y97124*
X22892Y97128*
X21908*
X21873Y97124*
X21839Y97112*
X21809Y97093*
X21784Y97068*
X21765Y97038*
X21753Y97004*
X21749Y96968*
Y93031*
X21753Y92996*
X21764Y92962*
X21783Y92932*
X21809Y92907*
X21839Y92888*
X21872Y92876*
X21908Y92872*
X24213Y583007D02*
G01X28150D01*
X28185Y583011*
X28219Y583022*
X28249Y583041*
X28274Y583066*
X28293Y583097*
X28305Y583130*
X28309Y583166*
Y584150*
X28305Y584186*
X28293Y584219*
X28274Y584249*
X28249Y584275*
X28219Y584294*
X28185Y584306*
X28150Y584310*
X24213*
X24177Y584306*
X24143Y584294*
X24113Y584275*
X24088Y584250*
X24069Y584220*
X24057Y584186*
X24053Y584150*
Y583166*
X24057Y583131*
X24069Y583097*
X24088Y583067*
X24113Y583042*
X24143Y583023*
X24177Y583011*
X24213Y583007*
Y581039D02*
G01X28150Y581038D01*
X28185Y581042*
X28219Y581054*
X28249Y581073*
X28274Y581098*
X28293Y581129*
X28305Y581162*
X28309Y581198*
Y582182*
X28305Y582218*
X28293Y582251*
X28274Y582281*
X28249Y582307*
X28219Y582326*
X28185Y582338*
X28150Y582342*
X24213*
X24177Y582338*
X24143Y582326*
X24113Y582307*
X24088Y582282*
X24069Y582252*
X24057Y582218*
X24053Y582182*
Y581198*
X24057Y581163*
X24069Y581129*
X24088Y581099*
X24113Y581073*
X24143Y581054*
X24177Y581043*
X24213Y581039*
Y579070D02*
G01X28150Y579069D01*
X28185Y579073*
X28219Y579085*
X28249Y579104*
X28274Y579129*
X28293Y579160*
X28305Y579193*
X28309Y579229*
Y580213*
X28305Y580249*
X28293Y580282*
X28274Y580313*
X28249Y580338*
X28219Y580357*
X28185Y580369*
X28150Y580373*
X24213*
X24177Y580369*
X24143Y580357*
X24113Y580338*
X24088Y580313*
X24069Y580283*
X24057Y580249*
X24053Y580213*
Y579229*
X24057Y579194*
X24069Y579160*
X24088Y579130*
X24113Y579104*
X24143Y579085*
X24177Y579074*
X24213Y579070*
Y577104D02*
G01X28150Y577103D01*
X28185Y577107*
X28219Y577119*
X28249Y577138*
X28274Y577163*
X28293Y577194*
X28305Y577227*
X28309Y577263*
Y578247*
X28305Y578283*
X28293Y578316*
X28274Y578347*
X28249Y578372*
X28219Y578391*
X28185Y578403*
X28150Y578407*
X24213*
X24177Y578403*
X24143Y578391*
X24113Y578372*
X24088Y578347*
X24069Y578317*
X24057Y578283*
X24053Y578247*
Y577263*
X24057Y577228*
X24069Y577194*
X24088Y577164*
X24113Y577138*
X24143Y577119*
X24177Y577108*
X24213Y577104*
Y575135D02*
G01X28150Y575134D01*
X28185Y575138*
X28219Y575150*
X28249Y575169*
X28274Y575194*
X28293Y575225*
X28305Y575258*
X28309Y575294*
Y576278*
X28305Y576314*
X28293Y576347*
X28274Y576377*
X28249Y576403*
X28219Y576422*
X28185Y576434*
X28150Y576438*
X24213*
X24177Y576434*
X24143Y576422*
X24113Y576403*
X24088Y576378*
X24069Y576348*
X24057Y576314*
X24053Y576278*
Y575294*
X24057Y575259*
X24069Y575225*
X24088Y575195*
X24113Y575169*
X24143Y575150*
X24177Y575139*
X24213Y575135*
Y573163D02*
G01X28150D01*
X28185Y573167*
X28219Y573178*
X28249Y573197*
X28274Y573222*
X28293Y573253*
X28305Y573286*
X28309Y573322*
Y574306*
X28305Y574342*
X28293Y574375*
X28274Y574406*
X28249Y574431*
X28219Y574450*
X28185Y574462*
X28150Y574466*
X24213*
X24177Y574462*
X24143Y574450*
X24113Y574431*
X24088Y574406*
X24069Y574376*
X24057Y574342*
X24053Y574306*
Y573322*
X24057Y573287*
X24069Y573253*
X24088Y573223*
X24113Y573198*
X24143Y573179*
X24177Y573167*
X24213Y573163*
Y571193D02*
G01X28150D01*
X28185Y571197*
X28219Y571208*
X28249Y571227*
X28274Y571252*
X28293Y571283*
X28305Y571316*
X28309Y571352*
Y572336*
X28305Y572372*
X28293Y572405*
X28274Y572435*
X28249Y572461*
X28219Y572480*
X28185Y572492*
X28150Y572496*
X24213*
X24177Y572492*
X24143Y572480*
X24113Y572461*
X24088Y572436*
X24069Y572406*
X24057Y572372*
X24053Y572336*
Y571352*
X24057Y571317*
X24069Y571283*
X24088Y571253*
X24113Y571228*
X24143Y571209*
X24177Y571197*
X24213Y571193*
Y569228D02*
G01X28150D01*
X28185Y569232*
X28219Y569243*
X28249Y569262*
X28274Y569287*
X28293Y569318*
X28305Y569351*
X28309Y569387*
Y570371*
X28305Y570407*
X28293Y570440*
X28274Y570471*
X28249Y570496*
X28219Y570515*
X28185Y570527*
X28150Y570531*
X24213*
X24177Y570527*
X24143Y570515*
X24113Y570496*
X24088Y570471*
X24069Y570441*
X24057Y570407*
X24053Y570371*
Y569387*
X24057Y569352*
X24069Y569318*
X24088Y569288*
X24113Y569263*
X24143Y569244*
X24177Y569232*
X24213Y569228*
Y567259D02*
G01X28150Y567258D01*
X28185Y567262*
X28219Y567274*
X28249Y567293*
X28274Y567318*
X28293Y567349*
X28305Y567382*
X28309Y567418*
Y568402*
X28305Y568438*
X28293Y568471*
X28274Y568502*
X28249Y568527*
X28219Y568546*
X28185Y568558*
X28150Y568562*
X24213*
X24177Y568558*
X24143Y568546*
X24113Y568527*
X24088Y568502*
X24069Y568472*
X24057Y568438*
X24053Y568402*
Y567418*
X24057Y567383*
X24069Y567349*
X24088Y567319*
X24113Y567293*
X24143Y567274*
X24177Y567263*
X24213Y567259*
Y565289D02*
G01X28150Y565288D01*
X28185Y565292*
X28219Y565304*
X28249Y565323*
X28274Y565348*
X28293Y565379*
X28305Y565412*
X28309Y565448*
Y566432*
X28305Y566468*
X28293Y566501*
X28274Y566531*
X28249Y566557*
X28219Y566576*
X28185Y566588*
X28150Y566592*
X24213*
X24177Y566588*
X24143Y566576*
X24113Y566557*
X24088Y566532*
X24069Y566502*
X24057Y566468*
X24053Y566432*
Y565448*
X24057Y565413*
X24069Y565379*
X24088Y565349*
X24113Y565323*
X24143Y565304*
X24177Y565293*
X24213Y565289*
X24291Y342260D02*
G01X28228D01*
X28264Y342264*
X28298Y342276*
X28328Y342295*
X28353Y342320*
X28372Y342350*
X28384Y342384*
X28388Y342419*
Y343404*
X28384Y343439*
X28372Y343473*
X28353Y343503*
X28328Y343528*
X28298Y343547*
X28264Y343559*
X28229Y343563*
X24291*
X24256Y343559*
X24222Y343547*
X24192Y343528*
X24167Y343503*
X24148Y343473*
X24136Y343439*
X24132Y343404*
Y342419*
X24136Y342384*
X24148Y342350*
X24167Y342320*
X24192Y342295*
X24222Y342276*
X24256Y342264*
X24291Y342260*
Y340292D02*
G01X28228D01*
X28264Y340296*
X28298Y340308*
X28328Y340327*
X28353Y340352*
X28372Y340382*
X28384Y340416*
X28388Y340451*
Y341436*
X28384Y341471*
X28372Y341505*
X28353Y341535*
X28328Y341560*
X28298Y341579*
X28264Y341591*
X28229Y341595*
X24291*
X24256Y341591*
X24222Y341579*
X24192Y341560*
X24167Y341535*
X24148Y341505*
X24136Y341471*
X24132Y341436*
Y340452*
X24136Y340416*
X24148Y340382*
X24167Y340352*
X24192Y340327*
X24222Y340308*
X24256Y340296*
X24291Y340292*
Y338323D02*
G01X28228D01*
X28264Y338327*
X28298Y338339*
X28328Y338358*
X28353Y338383*
X28372Y338413*
X28384Y338447*
X28388Y338482*
Y339467*
X28384Y339502*
X28372Y339536*
X28353Y339566*
X28328Y339591*
X28298Y339610*
X28264Y339622*
X28229Y339626*
X24291*
X24256Y339622*
X24222Y339610*
X24192Y339591*
X24167Y339566*
X24148Y339536*
X24136Y339502*
X24132Y339467*
Y338483*
X24136Y338447*
X24148Y338413*
X24167Y338383*
X24192Y338358*
X24222Y338339*
X24256Y338327*
X24291Y338323*
Y336357D02*
G01X28228D01*
X28264Y336361*
X28298Y336373*
X28328Y336392*
X28353Y336417*
X28372Y336447*
X28384Y336481*
X28388Y336516*
Y337501*
X28384Y337536*
X28372Y337570*
X28353Y337600*
X28328Y337625*
X28298Y337644*
X28264Y337656*
X28229Y337660*
X24291*
X24256Y337656*
X24222Y337644*
X24192Y337625*
X24167Y337600*
X24148Y337570*
X24136Y337536*
X24132Y337501*
Y336517*
X24136Y336481*
X24148Y336447*
X24167Y336417*
X24192Y336392*
X24222Y336373*
X24256Y336361*
X24291Y336357*
Y334388D02*
G01X28228D01*
X28264Y334392*
X28298Y334404*
X28328Y334423*
X28353Y334448*
X28372Y334478*
X28384Y334512*
X28388Y334547*
Y335532*
X28384Y335567*
X28372Y335601*
X28353Y335631*
X28328Y335656*
X28298Y335675*
X28264Y335687*
X28229Y335691*
X24291*
X24256Y335687*
X24222Y335675*
X24192Y335656*
X24167Y335631*
X24148Y335601*
X24136Y335567*
X24132Y335532*
Y334548*
X24136Y334512*
X24148Y334478*
X24167Y334448*
X24192Y334423*
X24222Y334404*
X24256Y334392*
X24291Y334388*
Y332416D02*
G01X28228D01*
X28264Y332420*
X28298Y332432*
X28328Y332451*
X28353Y332476*
X28372Y332506*
X28384Y332540*
X28388Y332575*
Y333560*
X28384Y333595*
X28372Y333629*
X28353Y333659*
X28328Y333684*
X28298Y333703*
X28264Y333715*
X28229Y333719*
X24291*
X24256Y333715*
X24222Y333703*
X24192Y333684*
X24167Y333659*
X24148Y333629*
X24136Y333595*
X24132Y333560*
Y332575*
X24136Y332540*
X24148Y332506*
X24167Y332476*
X24192Y332451*
X24222Y332432*
X24256Y332420*
X24291Y332416*
Y330446D02*
G01X28228D01*
X28264Y330450*
X28298Y330462*
X28328Y330481*
X28353Y330506*
X28372Y330536*
X28384Y330570*
X28388Y330605*
Y331590*
X28384Y331625*
X28372Y331659*
X28353Y331689*
X28328Y331714*
X28298Y331733*
X28264Y331745*
X28229Y331749*
X24291*
X24256Y331745*
X24222Y331733*
X24192Y331714*
X24167Y331689*
X24148Y331659*
X24136Y331625*
X24132Y331590*
Y330605*
X24136Y330570*
X24148Y330536*
X24167Y330506*
X24192Y330481*
X24222Y330462*
X24256Y330450*
X24291Y330446*
Y328481D02*
G01X28228D01*
X28264Y328485*
X28298Y328497*
X28328Y328516*
X28353Y328541*
X28372Y328571*
X28384Y328605*
X28388Y328640*
Y329625*
X28384Y329660*
X28372Y329694*
X28353Y329724*
X28328Y329749*
X28298Y329768*
X28264Y329780*
X28229Y329784*
X24291*
X24256Y329780*
X24222Y329768*
X24192Y329749*
X24167Y329724*
X24148Y329694*
X24136Y329660*
X24132Y329625*
Y328640*
X24136Y328605*
X24148Y328571*
X24167Y328541*
X24192Y328516*
X24222Y328497*
X24256Y328485*
X24291Y328481*
Y326512D02*
G01X28228D01*
X28264Y326516*
X28298Y326528*
X28328Y326547*
X28353Y326572*
X28372Y326602*
X28384Y326636*
X28388Y326671*
Y327656*
X28384Y327691*
X28372Y327725*
X28353Y327755*
X28328Y327780*
X28298Y327799*
X28264Y327811*
X28229Y327815*
X24291*
X24256Y327811*
X24222Y327799*
X24192Y327780*
X24167Y327755*
X24148Y327725*
X24136Y327691*
X24132Y327656*
Y326671*
X24136Y326636*
X24148Y326602*
X24167Y326572*
X24192Y326547*
X24222Y326528*
X24256Y326516*
X24291Y326512*
Y324542D02*
G01X28228D01*
X28264Y324546*
X28298Y324558*
X28328Y324577*
X28353Y324602*
X28372Y324632*
X28384Y324666*
X28388Y324701*
Y325686*
X28384Y325721*
X28372Y325755*
X28353Y325785*
X28328Y325810*
X28298Y325829*
X28264Y325841*
X28229Y325845*
X24291*
X24256Y325841*
X24222Y325829*
X24192Y325810*
X24167Y325785*
X24148Y325755*
X24136Y325721*
X24132Y325686*
Y324702*
X24136Y324666*
X24148Y324632*
X24167Y324602*
X24192Y324577*
X24222Y324558*
X24256Y324546*
X24291Y324542*
X24211Y120119D02*
G01X28151D01*
X28186Y120123*
X28220Y120134*
X28250Y120153*
X28276Y120178*
X28295Y120209*
X28306Y120242*
X28310Y120278*
Y128148*
X28306Y128183*
X28295Y128217*
X28276Y128247*
X28251Y128273*
X28220Y128292*
X28187Y128303*
X28151Y128307*
X24211*
X24176Y128303*
X24142Y128292*
X24112Y128273*
X24086Y128248*
X24067Y128217*
X24056Y128184*
X24052Y128148*
Y120278*
X24056Y120243*
X24067Y120209*
X24086Y120179*
X24111Y120153*
X24142Y120134*
X24175Y120123*
X24211Y120119*
X24016Y112537D02*
G01X27953D01*
X27988Y112541*
X28022Y112553*
X28052Y112572*
X28077Y112597*
X28096Y112627*
X28108Y112661*
X28112Y112696*
Y113681*
X28108Y113716*
X28096Y113750*
X28077Y113780*
X28052Y113805*
X28022Y113824*
X27988Y113836*
X27953Y113840*
X24016*
X23980Y113836*
X23946Y113824*
X23916Y113805*
X23891Y113780*
X23872Y113750*
X23860Y113716*
X23856Y113681*
Y112697*
X23860Y112661*
X23872Y112627*
X23891Y112597*
X23916Y112572*
X23946Y112553*
X23980Y112541*
X24016Y112537*
Y110569D02*
G01X27953D01*
X27988Y110573*
X28022Y110585*
X28052Y110604*
X28077Y110629*
X28096Y110659*
X28108Y110693*
X28112Y110728*
Y111713*
X28108Y111748*
X28096Y111782*
X28077Y111812*
X28052Y111837*
X28022Y111856*
X27988Y111868*
X27953Y111872*
X24016*
X23980Y111868*
X23946Y111856*
X23916Y111837*
X23891Y111812*
X23872Y111782*
X23860Y111748*
X23856Y111713*
Y110729*
X23860Y110693*
X23872Y110659*
X23891Y110629*
X23916Y110604*
X23946Y110585*
X23980Y110573*
X24016Y110569*
Y108600D02*
G01X27953D01*
X27988Y108604*
X28022Y108616*
X28052Y108635*
X28077Y108660*
X28096Y108690*
X28108Y108724*
X28112Y108759*
Y109744*
X28108Y109779*
X28096Y109813*
X28077Y109843*
X28052Y109868*
X28022Y109887*
X27988Y109899*
X27953Y109903*
X24016*
X23980Y109899*
X23946Y109887*
X23916Y109868*
X23891Y109843*
X23872Y109813*
X23860Y109779*
X23856Y109744*
Y108760*
X23860Y108724*
X23872Y108690*
X23891Y108660*
X23916Y108635*
X23946Y108616*
X23980Y108604*
X24016Y108600*
Y106634D02*
G01X27953D01*
X27988Y106638*
X28022Y106650*
X28052Y106669*
X28077Y106694*
X28096Y106724*
X28108Y106758*
X28112Y106793*
Y107778*
X28108Y107813*
X28096Y107847*
X28077Y107877*
X28052Y107902*
X28022Y107921*
X27988Y107933*
X27953Y107937*
X24016*
X23980Y107933*
X23946Y107921*
X23916Y107902*
X23891Y107877*
X23872Y107847*
X23860Y107813*
X23856Y107778*
Y106794*
X23860Y106758*
X23872Y106724*
X23891Y106694*
X23916Y106669*
X23946Y106650*
X23980Y106638*
X24016Y106634*
Y104665D02*
G01X27953D01*
X27988Y104669*
X28022Y104681*
X28052Y104700*
X28077Y104725*
X28096Y104755*
X28108Y104789*
X28112Y104824*
Y105809*
X28108Y105844*
X28096Y105878*
X28077Y105908*
X28052Y105933*
X28022Y105952*
X27988Y105964*
X27953Y105968*
X24016*
X23980Y105964*
X23946Y105952*
X23916Y105933*
X23891Y105908*
X23872Y105878*
X23860Y105844*
X23856Y105809*
Y104825*
X23860Y104789*
X23872Y104755*
X23891Y104725*
X23916Y104700*
X23946Y104681*
X23980Y104669*
X24016Y104665*
Y102693D02*
G01X27953D01*
X27988Y102697*
X28022Y102709*
X28052Y102728*
X28077Y102753*
X28096Y102783*
X28108Y102817*
X28112Y102852*
Y103837*
X28108Y103872*
X28096Y103906*
X28077Y103936*
X28052Y103961*
X28022Y103980*
X27988Y103992*
X27953Y103996*
X24016*
X23980Y103992*
X23946Y103980*
X23916Y103961*
X23891Y103936*
X23872Y103906*
X23860Y103872*
X23856Y103837*
Y102852*
X23860Y102817*
X23872Y102783*
X23891Y102753*
X23916Y102728*
X23946Y102709*
X23980Y102697*
X24016Y102693*
Y100723D02*
G01X27953D01*
X27988Y100727*
X28022Y100739*
X28052Y100758*
X28077Y100783*
X28096Y100813*
X28108Y100847*
X28112Y100882*
Y101867*
X28108Y101902*
X28096Y101936*
X28077Y101966*
X28052Y101991*
X28022Y102010*
X27988Y102022*
X27953Y102026*
X24016*
X23980Y102022*
X23946Y102010*
X23916Y101991*
X23891Y101966*
X23872Y101936*
X23860Y101902*
X23856Y101867*
Y100883*
X23860Y100847*
X23872Y100813*
X23891Y100783*
X23916Y100758*
X23946Y100739*
X23980Y100727*
X24016Y100723*
Y98758D02*
G01X27953D01*
X27988Y98762*
X28022Y98774*
X28052Y98793*
X28077Y98818*
X28096Y98848*
X28108Y98882*
X28112Y98917*
Y99902*
X28108Y99937*
X28096Y99971*
X28077Y100001*
X28052Y100026*
X28022Y100045*
X27988Y100057*
X27953Y100061*
X24016*
X23980Y100057*
X23946Y100045*
X23916Y100026*
X23891Y100001*
X23872Y99971*
X23860Y99937*
X23856Y99902*
Y98918*
X23860Y98882*
X23872Y98848*
X23891Y98818*
X23916Y98793*
X23946Y98774*
X23980Y98762*
X24016Y98758*
Y96789D02*
G01X27953D01*
X27988Y96793*
X28022Y96805*
X28052Y96824*
X28077Y96849*
X28096Y96879*
X28108Y96913*
X28112Y96948*
Y97933*
X28108Y97968*
X28096Y98002*
X28077Y98032*
X28052Y98057*
X28022Y98076*
X27988Y98088*
X27953Y98092*
X24016*
X23980Y98088*
X23946Y98076*
X23916Y98057*
X23891Y98032*
X23872Y98002*
X23860Y97968*
X23856Y97933*
Y96948*
X23860Y96913*
X23872Y96879*
X23891Y96849*
X23916Y96824*
X23946Y96805*
X23980Y96793*
X24016Y96789*
Y94819D02*
G01X27953D01*
X27988Y94823*
X28022Y94835*
X28052Y94854*
X28077Y94879*
X28096Y94909*
X28108Y94943*
X28112Y94978*
Y95963*
X28108Y95998*
X28096Y96032*
X28077Y96062*
X28052Y96087*
X28022Y96106*
X27988Y96118*
X27953Y96122*
X24016*
X23980Y96118*
X23946Y96106*
X23916Y96087*
X23891Y96062*
X23872Y96032*
X23860Y95998*
X23856Y95963*
Y94979*
X23860Y94943*
X23872Y94909*
X23891Y94879*
X23916Y94854*
X23946Y94835*
X23980Y94823*
X24016Y94819*
X31496Y580352D02*
G01X34646D01*
X34681Y580356*
X34715Y580368*
X34745Y580387*
X34770Y580412*
X34789Y580442*
X34801Y580476*
X34805Y580511*
Y582481*
X34801Y582517*
X34790Y582550*
X34771Y582581*
X34745Y582606*
X34715Y582625*
X34682Y582637*
X34646Y582641*
X31496*
X31460Y582637*
X31427Y582625*
X31397Y582606*
X31371Y582581*
X31352Y582551*
X31340Y582517*
X31336Y582481*
Y580511*
X31340Y580476*
X31352Y580442*
X31371Y580412*
X31396Y580387*
X31426Y580368*
X31460Y580356*
X31496Y580352*
Y576415D02*
G01X34646D01*
X34681Y576419*
X34715Y576431*
X34745Y576450*
X34770Y576475*
X34789Y576505*
X34801Y576539*
X34805Y576574*
Y578544*
X34801Y578580*
X34790Y578613*
X34771Y578644*
X34745Y578669*
X34715Y578688*
X34682Y578700*
X34646Y578704*
X31496*
X31460Y578700*
X31427Y578688*
X31397Y578669*
X31371Y578644*
X31352Y578614*
X31340Y578580*
X31336Y578544*
Y576574*
X31340Y576539*
X31352Y576505*
X31371Y576475*
X31396Y576450*
X31426Y576431*
X31460Y576419*
X31496Y576415*
X31102Y339013D02*
G01X34252D01*
X34288Y339017*
X34321Y339029*
X34351Y339048*
X34377Y339073*
X34396Y339103*
X34408Y339137*
X34412Y339173*
Y341143*
X34408Y341178*
X34396Y341212*
X34377Y341242*
X34352Y341267*
X34322Y341286*
X34288Y341298*
X34252Y341302*
X31102*
X31067Y341298*
X31033Y341286*
X31003Y341267*
X30978Y341242*
X30959Y341212*
X30947Y341178*
X30943Y341143*
Y339173*
X30947Y339137*
X30958Y339104*
X30977Y339073*
X31003Y339048*
X31033Y339029*
X31066Y339017*
X31102Y339013*
Y335076D02*
G01X34252D01*
X34288Y335080*
X34321Y335092*
X34351Y335111*
X34377Y335136*
X34396Y335166*
X34408Y335200*
X34412Y335236*
Y337206*
X34408Y337241*
X34396Y337275*
X34377Y337305*
X34352Y337330*
X34322Y337349*
X34288Y337361*
X34252Y337365*
X31102*
X31067Y337361*
X31033Y337349*
X31003Y337330*
X30978Y337305*
X30959Y337275*
X30947Y337241*
X30943Y337206*
Y335236*
X30947Y335200*
X30958Y335166*
X30977Y335136*
X31003Y335111*
X31033Y335092*
X31066Y335080*
X31102Y335076*
X31496Y109486D02*
G01X34646D01*
X34681Y109490*
X34715Y109501*
X34745Y109520*
X34770Y109545*
X34789Y109576*
X34801Y109609*
X34805Y109645*
Y111615*
X34801Y111650*
X34790Y111684*
X34771Y111714*
X34745Y111740*
X34715Y111759*
X34682Y111770*
X34646Y111774*
X31496*
X31460Y111770*
X31427Y111759*
X31397Y111740*
X31371Y111715*
X31352Y111684*
X31340Y111651*
X31336Y111615*
Y109645*
X31340Y109610*
X31352Y109576*
X31371Y109546*
X31396Y109520*
X31426Y109501*
X31460Y109490*
X31496Y109486*
Y105549D02*
G01X34646D01*
X34681Y105553*
X34715Y105564*
X34745Y105583*
X34770Y105608*
X34789Y105639*
X34801Y105672*
X34805Y105708*
Y107678*
X34801Y107713*
X34790Y107747*
X34771Y107777*
X34745Y107803*
X34715Y107822*
X34682Y107833*
X34646Y107837*
X31496*
X31460Y107833*
X31427Y107822*
X31397Y107803*
X31371Y107778*
X31352Y107747*
X31340Y107714*
X31336Y107678*
Y105708*
X31340Y105673*
X31352Y105639*
X31371Y105609*
X31396Y105583*
X31426Y105564*
X31460Y105553*
X31496Y105549*
X4724D02*
G01X7874D01*
X7910Y105553*
X7943Y105564*
X7973Y105583*
X7999Y105608*
X8018Y105639*
X8029Y105672*
X8034Y105708*
Y107678*
X8030Y107713*
X8018Y107747*
X7999Y107777*
X7974Y107803*
X7943Y107822*
X7910Y107833*
X7874Y107837*
X4724*
X4689Y107833*
X4655Y107822*
X4625Y107803*
X4600Y107778*
X4581Y107747*
X4569Y107714*
X4565Y107678*
Y105708*
X4569Y105673*
X4580Y105639*
X4599Y105609*
X4625Y105583*
X4655Y105564*
X4688Y105553*
X4724Y105549*
X11614Y-60236D02*
G01X27756D01*
Y-43258*
X11614*
Y-60236*
M02*
