G04 Layer: BoardOutline*
G04 EasyEDA v6.4.20.5, 2021-07-14T11:10:32+08:00*
G04 c8fff6f0988c48818f956e3cd1a6ab51,09830f79c2804304a3631616f4cfa91d,10*
G04 Gerber Generator version 0.2*
G04 Scale: 100 percent, Rotated: No, Reflected: No *
G04 Dimensions in inches *
G04 leading zeros omitted , absolute positions ,3 integer and 6 decimal *
%FSLAX36Y36*%
%MOIN*%

%ADD10C,0.0100*%
D10*
X393699Y787402D02*
G01*
X393699Y1338582D01*
X127953Y-590551D02*
G01*
X127953Y787402D01*
X393697Y5905511D02*
G01*
X393697Y5551179D01*
X265700Y5551199D02*
G01*
X265700Y5433099D01*
X128000Y5433099D02*
G01*
X127899Y5551199D01*
X393697Y5551179D02*
G01*
X265745Y5551179D01*
X-3Y5905511D02*
G01*
X393697Y5905511D01*
X-3Y5551179D02*
G01*
X-3Y5905511D01*
X-3Y5551179D02*
G01*
X127950Y5551179D01*
X127953Y5433071D02*
G01*
X128000Y5354292D01*
X127953Y5354331D02*
G01*
X127953Y3622046D01*
X265747Y3543310D02*
G01*
X265747Y3503937D01*
X393701Y3503937D02*
G01*
X265747Y3503937D01*
X0Y3149607D02*
G01*
X0Y3503937D01*
X0Y3503937D02*
G01*
X127953Y3503937D01*
X265747Y3070866D02*
G01*
X265747Y3149607D01*
X393699Y3149607D02*
G01*
X265747Y3149607D01*
X0Y3149607D02*
G01*
X127953Y3149607D01*
X127953Y1496062D02*
G01*
X127953Y1417325D01*
X127953Y1417325D02*
G01*
X127953Y1338582D01*
X265747Y1417325D02*
G01*
X265747Y1338584D01*
X265747Y1496062D02*
G01*
X265747Y1417325D01*
X393699Y1338584D02*
G01*
X265747Y1338584D01*
X127952Y1338578D02*
G01*
X-1Y1338578D01*
X127953Y787402D02*
G01*
X0Y787402D01*
X127953Y-590599D02*
G01*
X265747Y-590599D01*
X393699Y3149600D02*
G01*
X393699Y3503899D01*
X0Y1338582D02*
G01*
X0Y787402D01*
X127953Y3543310D02*
G01*
X127953Y3503937D01*
X265700Y5354299D02*
G01*
X265700Y5433099D01*
X265747Y3622046D02*
G01*
X265747Y3543310D01*
X127953Y3622046D02*
G01*
X127953Y3543310D01*
X127953Y3070866D02*
G01*
X127953Y3149607D01*
X265747Y-590551D02*
G01*
X265747Y787402D01*
X265747Y3622046D02*
G01*
X265747Y5354331D01*
X265747Y787402D02*
G01*
X393699Y787402D01*
X265747Y1496062D02*
G01*
X265747Y3070866D01*
X127953Y3070866D02*
G01*
X127953Y1496062D01*

%LPD*%
M02*
