G04 Layer: TopPasteMaskLayer*
G04 EasyEDA v6.4.20.5, 2021-07-14T11:10:32+08:00*
G04 c8fff6f0988c48818f956e3cd1a6ab51,09830f79c2804304a3631616f4cfa91d,10*
G04 Gerber Generator version 0.2*
G04 Scale: 100 percent, Rotated: No, Reflected: No *
G04 Dimensions in inches *
G04 leading zeros omitted , absolute positions ,3 integer and 6 decimal *
%FSLAX36Y36*%
%MOIN*%

%ADD12R,0.0118X0.1575*%
%ADD13R,0.0394X0.0787*%
%ADD14R,0.0315X0.0197*%

%LPD*%
D12*
G01*
X206689Y-511810D03*
G01*
X186999Y-511810D03*
G01*
X167319Y-511810D03*
G01*
X226370Y-511810D03*
G01*
X246060Y-511810D03*
G01*
X147629Y-511810D03*
D13*
G01*
X196810Y1242130D03*
G01*
X261810Y1242130D03*
G01*
X131810Y1242130D03*
D14*
G01*
X330709Y1106300D03*
G01*
X330709Y1066930D03*
G01*
X62991Y1106300D03*
G01*
X62991Y1066930D03*
G01*
X326772Y3401577D03*
G01*
X326772Y3362206D03*
G01*
X66929Y3405513D03*
G01*
X66929Y3366143D03*
G01*
X330709Y5814964D03*
G01*
X330709Y5775594D03*
G01*
X62991Y5814964D03*
G01*
X62991Y5775594D03*
G36*
X240156Y1136808D02*
G01*
X279526Y1136808D01*
X279526Y1126965D01*
X240156Y1126965D01*
G37*
G36*
X219081Y1156282D02*
G01*
X228923Y1156282D01*
X228923Y1116911D01*
X219081Y1116911D01*
G37*
G36*
X199421Y1156282D02*
G01*
X209263Y1156282D01*
X209263Y1116911D01*
X199421Y1116911D01*
G37*
G36*
X179711Y1156282D02*
G01*
X189553Y1156282D01*
X189553Y1116911D01*
X179711Y1116911D01*
G37*
G36*
X160041Y1156282D02*
G01*
X169884Y1156282D01*
X169884Y1116911D01*
X160041Y1116911D01*
G37*
G36*
X109446Y1136828D02*
G01*
X148816Y1136828D01*
X148816Y1126986D01*
X109446Y1126986D01*
G37*
G36*
X109446Y1117127D02*
G01*
X148816Y1117127D01*
X148816Y1107285D01*
X109446Y1107285D01*
G37*
G36*
X109446Y1097429D02*
G01*
X148816Y1097429D01*
X148816Y1087584D01*
X109446Y1087584D01*
G37*
G36*
X109446Y1077728D02*
G01*
X148816Y1077728D01*
X148816Y1067885D01*
X109446Y1067885D01*
G37*
G36*
X109446Y1058078D02*
G01*
X148816Y1058078D01*
X148816Y1048234D01*
X109446Y1048234D01*
G37*
G36*
X109446Y1038377D02*
G01*
X148816Y1038377D01*
X148816Y1028535D01*
X109446Y1028535D01*
G37*
G36*
X109446Y1018679D02*
G01*
X148816Y1018679D01*
X148816Y1008834D01*
X109446Y1008834D01*
G37*
G36*
X109446Y999027D02*
G01*
X148816Y999027D01*
X148816Y989185D01*
X109446Y989185D01*
G37*
G36*
X109446Y979328D02*
G01*
X148816Y979328D01*
X148816Y969484D01*
X109446Y969484D01*
G37*
G36*
X109446Y959627D02*
G01*
X148816Y959627D01*
X148816Y949785D01*
X109446Y949785D01*
G37*
G36*
X160041Y969682D02*
G01*
X169884Y969682D01*
X169884Y930311D01*
X160041Y930311D01*
G37*
G36*
X179701Y969682D02*
G01*
X189544Y969682D01*
X189544Y930311D01*
X179701Y930311D01*
G37*
G36*
X199401Y969682D02*
G01*
X209243Y969682D01*
X209243Y930311D01*
X199401Y930311D01*
G37*
G36*
X219081Y969682D02*
G01*
X228923Y969682D01*
X228923Y930311D01*
X219081Y930311D01*
G37*
G36*
X240156Y959627D02*
G01*
X279526Y959627D01*
X279526Y949785D01*
X240156Y949785D01*
G37*
G36*
X240156Y979328D02*
G01*
X279526Y979328D01*
X279526Y969484D01*
X240156Y969484D01*
G37*
G36*
X240156Y999018D02*
G01*
X279526Y999018D01*
X279526Y989175D01*
X240156Y989175D01*
G37*
G36*
X240156Y1018667D02*
G01*
X279526Y1018667D01*
X279526Y1008825D01*
X240156Y1008825D01*
G37*
G36*
X240156Y1038368D02*
G01*
X279526Y1038368D01*
X279526Y1028524D01*
X240156Y1028524D01*
G37*
G36*
X240156Y1058088D02*
G01*
X279526Y1058088D01*
X279526Y1048245D01*
X240156Y1048245D01*
G37*
G36*
X240156Y1077777D02*
G01*
X279526Y1077777D01*
X279526Y1067935D01*
X240156Y1067935D01*
G37*
G36*
X240156Y1097438D02*
G01*
X279526Y1097438D01*
X279526Y1087595D01*
X240156Y1087595D01*
G37*
G36*
X240156Y1117127D02*
G01*
X279526Y1117127D01*
X279526Y1107285D01*
X240156Y1107285D01*
G37*
G36*
X242914Y3434038D02*
G01*
X282285Y3434038D01*
X282285Y3424194D01*
X242914Y3424194D01*
G37*
G36*
X221838Y3453512D02*
G01*
X231682Y3453512D01*
X231682Y3414142D01*
X221838Y3414142D01*
G37*
G36*
X202179Y3453512D02*
G01*
X212022Y3453512D01*
X212022Y3414142D01*
X202179Y3414142D01*
G37*
G36*
X182469Y3453512D02*
G01*
X192312Y3453512D01*
X192312Y3414142D01*
X182469Y3414142D01*
G37*
G36*
X162798Y3453512D02*
G01*
X172641Y3453512D01*
X172641Y3414142D01*
X162798Y3414142D01*
G37*
G36*
X112204Y3434058D02*
G01*
X151574Y3434058D01*
X151574Y3424216D01*
X112204Y3424216D01*
G37*
G36*
X112204Y3414358D02*
G01*
X151574Y3414358D01*
X151574Y3404515D01*
X112204Y3404515D01*
G37*
G36*
X112204Y3394659D02*
G01*
X151574Y3394659D01*
X151574Y3384814D01*
X112204Y3384814D01*
G37*
G36*
X112204Y3374958D02*
G01*
X151574Y3374958D01*
X151574Y3365115D01*
X112204Y3365115D01*
G37*
G36*
X112204Y3355308D02*
G01*
X151574Y3355308D01*
X151574Y3345464D01*
X112204Y3345464D01*
G37*
G36*
X112204Y3335608D02*
G01*
X151574Y3335608D01*
X151574Y3325765D01*
X112204Y3325765D01*
G37*
G36*
X112204Y3315909D02*
G01*
X151574Y3315909D01*
X151574Y3306064D01*
X112204Y3306064D01*
G37*
G36*
X112204Y3296257D02*
G01*
X151574Y3296257D01*
X151574Y3286415D01*
X112204Y3286415D01*
G37*
G36*
X112204Y3276558D02*
G01*
X151574Y3276558D01*
X151574Y3266714D01*
X112204Y3266714D01*
G37*
G36*
X112204Y3256858D02*
G01*
X151574Y3256858D01*
X151574Y3247015D01*
X112204Y3247015D01*
G37*
G36*
X162798Y3266911D02*
G01*
X172641Y3266911D01*
X172641Y3227541D01*
X162798Y3227541D01*
G37*
G36*
X182458Y3266911D02*
G01*
X192301Y3266911D01*
X192301Y3227541D01*
X182458Y3227541D01*
G37*
G36*
X202159Y3266911D02*
G01*
X212002Y3266911D01*
X212002Y3227541D01*
X202159Y3227541D01*
G37*
G36*
X221838Y3266911D02*
G01*
X231682Y3266911D01*
X231682Y3227541D01*
X221838Y3227541D01*
G37*
G36*
X242914Y3256858D02*
G01*
X282285Y3256858D01*
X282285Y3247015D01*
X242914Y3247015D01*
G37*
G36*
X242914Y3276558D02*
G01*
X282285Y3276558D01*
X282285Y3266714D01*
X242914Y3266714D01*
G37*
G36*
X242914Y3296247D02*
G01*
X282285Y3296247D01*
X282285Y3286404D01*
X242914Y3286404D01*
G37*
G36*
X242914Y3315898D02*
G01*
X282285Y3315898D01*
X282285Y3306054D01*
X242914Y3306054D01*
G37*
G36*
X242914Y3335598D02*
G01*
X282285Y3335598D01*
X282285Y3325754D01*
X242914Y3325754D01*
G37*
G36*
X242914Y3355317D02*
G01*
X282285Y3355317D01*
X282285Y3345475D01*
X242914Y3345475D01*
G37*
G36*
X242914Y3375007D02*
G01*
X282285Y3375007D01*
X282285Y3365165D01*
X242914Y3365165D01*
G37*
G36*
X242914Y3394668D02*
G01*
X282285Y3394668D01*
X282285Y3384825D01*
X242914Y3384825D01*
G37*
G36*
X242914Y3414358D02*
G01*
X282285Y3414358D01*
X282285Y3404515D01*
X242914Y3404515D01*
G37*
G36*
X242126Y5841502D02*
G01*
X281496Y5841502D01*
X281496Y5831660D01*
X242126Y5831660D01*
G37*
G36*
X221050Y5860976D02*
G01*
X230893Y5860976D01*
X230893Y5821606D01*
X221050Y5821606D01*
G37*
G36*
X201390Y5860976D02*
G01*
X211233Y5860976D01*
X211233Y5821606D01*
X201390Y5821606D01*
G37*
G36*
X181679Y5860976D02*
G01*
X191523Y5860976D01*
X191523Y5821606D01*
X181679Y5821606D01*
G37*
G36*
X162009Y5860976D02*
G01*
X171853Y5860976D01*
X171853Y5821606D01*
X162009Y5821606D01*
G37*
G36*
X111415Y5841523D02*
G01*
X150785Y5841523D01*
X150785Y5831680D01*
X111415Y5831680D01*
G37*
G36*
X111415Y5821822D02*
G01*
X150785Y5821822D01*
X150785Y5811979D01*
X111415Y5811979D01*
G37*
G36*
X111415Y5802123D02*
G01*
X150785Y5802123D01*
X150785Y5792280D01*
X111415Y5792280D01*
G37*
G36*
X111415Y5782422D02*
G01*
X150785Y5782422D01*
X150785Y5772579D01*
X111415Y5772579D01*
G37*
G36*
X111415Y5762773D02*
G01*
X150785Y5762773D01*
X150785Y5752929D01*
X111415Y5752929D01*
G37*
G36*
X111415Y5743072D02*
G01*
X150785Y5743072D01*
X150785Y5733229D01*
X111415Y5733229D01*
G37*
G36*
X111415Y5723373D02*
G01*
X150785Y5723373D01*
X150785Y5713530D01*
X111415Y5713530D01*
G37*
G36*
X111415Y5703723D02*
G01*
X150785Y5703723D01*
X150785Y5693879D01*
X111415Y5693879D01*
G37*
G36*
X111415Y5684023D02*
G01*
X150785Y5684023D01*
X150785Y5674179D01*
X111415Y5674179D01*
G37*
G36*
X111415Y5664322D02*
G01*
X150785Y5664322D01*
X150785Y5654479D01*
X111415Y5654479D01*
G37*
G36*
X162009Y5674377D02*
G01*
X171853Y5674377D01*
X171853Y5635007D01*
X162009Y5635007D01*
G37*
G36*
X181669Y5674377D02*
G01*
X191512Y5674377D01*
X191512Y5635007D01*
X181669Y5635007D01*
G37*
G36*
X201370Y5674377D02*
G01*
X211213Y5674377D01*
X211213Y5635007D01*
X201370Y5635007D01*
G37*
G36*
X221050Y5674377D02*
G01*
X230893Y5674377D01*
X230893Y5635007D01*
X221050Y5635007D01*
G37*
G36*
X242126Y5664322D02*
G01*
X281496Y5664322D01*
X281496Y5654479D01*
X242126Y5654479D01*
G37*
G36*
X242126Y5684023D02*
G01*
X281496Y5684023D01*
X281496Y5674179D01*
X242126Y5674179D01*
G37*
G36*
X242126Y5703713D02*
G01*
X281496Y5703713D01*
X281496Y5693870D01*
X242126Y5693870D01*
G37*
G36*
X242126Y5723362D02*
G01*
X281496Y5723362D01*
X281496Y5713520D01*
X242126Y5713520D01*
G37*
G36*
X242126Y5743063D02*
G01*
X281496Y5743063D01*
X281496Y5733220D01*
X242126Y5733220D01*
G37*
G36*
X242126Y5762782D02*
G01*
X281496Y5762782D01*
X281496Y5752939D01*
X242126Y5752939D01*
G37*
G36*
X242126Y5782473D02*
G01*
X281496Y5782473D01*
X281496Y5772629D01*
X242126Y5772629D01*
G37*
G36*
X242126Y5802133D02*
G01*
X281496Y5802133D01*
X281496Y5792289D01*
X242126Y5792289D01*
G37*
G36*
X242126Y5821822D02*
G01*
X281496Y5821822D01*
X281496Y5811979D01*
X242126Y5811979D01*
G37*
M02*
