M48
INCH,LZ
;FILE_FORMAT=2:4
;TYPE=PLATED
;Layer: Drill PTH
;EasyEDA v6.4.20.5, 2021-07-14T11:10:32+08:00
;c8fff6f0988c48818f956e3cd1a6ab51,09830f79c2804304a3631616f4cfa91d,10
;Gerber Generator version 0.2
;Holesize 1 = 0.0120 inch
T01C0.0120
%
G05
G90
T01
X002087Y008543
X001693Y008504
X001299Y011693
X001732Y010000
X002165Y010905
X002165Y031378
X001850Y033465
X002165Y055512
X001850Y057638
X003268Y033110
X001220Y056102
X000787Y034331
X002165Y033819
X000669Y011457
X003032Y011575
X003268Y010157
X000394Y008268
X003543Y008268
X003543Y012953
X003622Y034724
X000433Y031929
X000354Y012953
X003268Y034291
X003307Y058583
M30
